<svg width="1266" height="232" viewBox="0 0 1266 232" fill="none" xmlns="http://www.w3.org/2000/svg">
<path d="M44 54.0001C44 78.3006 24.3005 98.0001 0 98.0001C-24.3005 98.0001 -44 78.3006 -44 54.0001C-44 29.6995 -24.3005 10.0001 0 10.0001C24.3005 10.0001 44 29.6995 44 54.0001Z" fill="#F32735"/>
<path d="M101.8 92.0001H86.7V22H104.7V61.5001L133.6 22H149.2V92.0001H131.2V52.1001L101.8 92.0001Z" fill="#343434"/>
<path d="M180.579 92.0001H162.579V22H180.579V46.9001H206.979V22H224.979V92.0001H206.979V62.9001H180.579V92.0001Z" fill="#343434"/>
<path d="M273.46 92.0001H255.46V37.8H234.46V22H294.56V37.8H273.46V92.0001Z" fill="#343434"/>
<path d="M358.083 92.0001H304.083V22H357.283V37.8H322.083V47.3001H350.083V62.5001H322.083V76.2001H358.083V92.0001Z" fill="#343434"/>
<path d="M369.743 92.6001C366.343 92.6001 363.776 92.1334 362.043 91.2001V74.7001C363.843 75.5667 365.61 76.0001 367.343 76.0001C370.81 76.0001 373.043 73.8667 374.043 69.6001C375.176 65.2667 375.776 56.4334 375.843 43.1001L376.043 22H428.343V92.0001H410.343V37.8H393.543L393.343 45.5001C392.81 64.2334 391.01 76.4334 387.943 82.1001C384.143 89.1001 378.076 92.6001 369.743 92.6001Z" fill="#343434"/>
<path d="M443.278 92.6001C439.878 92.6001 437.311 92.1334 435.578 91.2001V74.7001C437.378 75.5667 439.145 76.0001 440.878 76.0001C444.345 76.0001 446.578 73.8667 447.578 69.6001C448.711 65.2667 449.311 56.4334 449.378 43.1001L449.578 22H501.878V92.0001H483.878V37.8H467.078L466.878 45.5001C466.345 64.2334 464.545 76.4334 461.478 82.1001C457.678 89.1001 451.611 92.6001 443.278 92.6001Z" fill="#343434"/>
<path d="M569.313 92.0001H515.313V22H568.513V37.8H533.313V47.3001H561.313V62.5001H533.313V76.2001H569.313V92.0001Z" fill="#343434"/>
<path d="M597.473 92.0001H579.473V22H597.473V48.7001L620.173 22H641.773L614.673 54.2001L646.773 92.0001H624.873L597.473 60.9001V92.0001Z" fill="#343434"/>
<path d="M687.132 92.0001H669.132V37.8H648.132V22H708.232V37.8H687.132V92.0001Z" fill="#343434"/>
<path d="M731.155 93.4001C726.155 93.4001 721.988 92.5001 718.655 90.7001V75.3001C721.321 76.7667 724.388 77.5001 727.855 77.5001C730.388 77.5001 732.421 76.9667 733.955 75.9001C735.488 74.8334 736.988 72.9001 738.455 70.1001L712.155 22H732.055L747.355 52.4001L760.755 22H779.855L754.155 76.6001C750.888 83.6667 746.855 88.3334 742.055 90.6001C738.121 92.4667 734.488 93.4001 731.155 93.4001Z" fill="#343434"/>
<path d="M787.695 92.0001H768.695L798.095 21.6H815.395L844.795 92.0001H825.495L819.595 77.2001H793.595L787.695 92.0001ZM806.595 44.1001L799.295 62.8001H813.895L806.595 44.1001Z" fill="#343434"/>
<path d="M854.02 92.6001C850.62 92.6001 848.054 92.1334 846.32 91.2001V74.7001C848.12 75.5667 849.887 76.0001 851.62 76.0001C855.087 76.0001 857.32 73.8667 858.32 69.6001C859.454 65.2667 860.054 56.4334 860.12 43.1001L860.32 22H912.62V92.0001H894.62V37.8H877.82L877.62 45.5001C877.087 64.2334 875.287 76.4334 872.22 82.1001C868.42 89.1001 862.354 92.6001 854.02 92.6001Z" fill="#343434"/>
<path d="M956.655 92.0001H926.055V22H944.055V43.6001H956.655C965.122 43.6001 971.922 45.8667 977.055 50.4001C982.189 54.9334 984.755 60.7667 984.755 67.9001C984.755 75.0334 982.222 80.8334 977.155 85.3001C972.089 89.7667 965.255 92.0001 956.655 92.0001ZM944.055 58.2001V76.6001H955.555C958.956 76.6001 961.622 75.8001 963.555 74.2001C965.555 72.5334 966.555 70.3001 966.555 67.5001C966.555 64.6334 965.555 62.3667 963.555 60.7001C961.622 59.0334 958.956 58.2001 955.555 58.2001H944.055Z" fill="#343434"/>
<path d="M1011.73 92.0001H993.731V22H1011.73V46.9001H1038.13V22H1056.13V92.0001H1038.13V62.9001H1011.73V92.0001Z" fill="#343434"/>
<path d="M1097.81 92.0001H1069.51V22H1087.51V43.6001H1097.81C1106.28 43.6001 1113.08 45.8667 1118.21 50.4001C1123.35 54.9334 1125.91 60.7667 1125.91 67.9001C1125.91 75.0334 1123.38 80.8334 1118.31 85.3001C1113.25 89.7667 1106.41 92.0001 1097.81 92.0001ZM1087.51 58.2001V76.6001H1096.71C1100.11 76.6001 1102.78 75.8001 1104.71 74.2001C1106.71 72.5334 1107.71 70.3001 1107.71 67.5001C1107.71 64.6334 1106.71 62.3667 1104.71 60.7001C1102.78 59.0334 1100.11 58.2001 1096.71 58.2001H1087.51ZM1151.11 92.0001H1133.11V22H1151.11V92.0001Z" fill="#343434"/>
<path d="M1179.63 92.0001H1164.53V22H1182.53V61.5001L1211.43 22H1227.03V92.0001H1209.03V52.1001L1179.63 92.0001ZM1176.83 0.800049H1188.93C1189 2.73339 1189.6 4.26672 1190.73 5.40005C1191.93 6.53338 1193.57 7.10005 1195.63 7.10005C1197.7 7.10005 1199.3 6.53338 1200.43 5.40005C1201.63 4.26672 1202.27 2.73339 1202.33 0.800049H1214.63C1214.5 6.33338 1212.67 10.6334 1209.13 13.7C1205.6 16.8334 1201.13 18.4 1195.73 18.4C1190.4 18.4 1185.9 16.8334 1182.23 13.7C1178.77 10.5667 1176.97 6.26672 1176.83 0.800049Z" fill="#343434"/>
<path d="M97.4 231.6H80.5V202.2H87.2C92.5333 193.533 95.2 179.667 95.2 160.6V148H147.4V202.2H156.6V231.6H139.6V218H97.4V231.6ZM106.8 202.2H129.4V163.8H113.1C112.9 178.467 110.8 191.267 106.8 202.2Z" fill="#343434"/>
<path d="M183.899 218H165.899V148H197.099C204.966 148 211.166 150.033 215.699 154.1C220.299 158.167 222.599 163.433 222.599 169.9C222.599 176.367 220.299 181.667 215.699 185.8C211.166 189.867 204.966 191.9 197.099 191.9H183.899V218ZM183.899 163.2V177.1H195.799C198.399 177.1 200.466 176.5 201.999 175.3C203.599 174.033 204.399 172.3 204.399 170.1C204.399 167.9 203.633 166.2 202.099 165C200.566 163.8 198.466 163.2 195.799 163.2H183.899Z" fill="#343434"/>
<path d="M236.914 218H217.914L247.314 147.6H264.614L294.014 218H274.714L268.814 203.2H242.814L236.914 218ZM255.814 170.1L248.514 188.8H263.114L255.814 170.1Z" fill="#343434"/>
<path d="M316.839 218H301.739V148H319.739V187.5L348.639 148H364.239V218H346.239V178.1L316.839 218ZM314.039 126.8H326.139C326.206 128.733 326.806 130.267 327.939 131.4C329.139 132.533 330.772 133.1 332.839 133.1C334.906 133.1 336.506 132.533 337.639 131.4C338.839 130.267 339.472 128.733 339.539 126.8H351.839C351.706 132.333 349.872 136.633 346.339 139.7C342.806 142.833 338.339 144.4 332.939 144.4C327.606 144.4 323.106 142.833 319.439 139.7C315.972 136.567 314.172 132.267 314.039 126.8Z" fill="#343434"/>
<path d="M413.618 218H377.618V148H411.718C418.318 148 423.585 149.567 427.518 152.7C431.518 155.767 433.518 160.1 433.518 165.7C433.518 168.9 432.718 171.7 431.118 174.1C429.585 176.5 427.651 178.233 425.318 179.3C428.785 180.1 431.851 182.133 434.518 185.4C437.251 188.733 438.618 192.9 438.618 197.9C438.618 203.9 436.318 208.767 431.718 212.5C427.251 216.167 421.218 218 413.618 218ZM395.618 188.1V203H410.118C412.851 203 414.985 202.367 416.518 201.1C418.118 199.767 418.918 197.933 418.918 195.6C418.918 193.267 418.118 191.433 416.518 190.1C414.918 188.767 412.785 188.1 410.118 188.1H395.618ZM395.618 162.6V174.8H409.018C411.218 174.8 412.951 174.267 414.218 173.2C415.551 172.133 416.218 170.667 416.218 168.8C416.218 166.867 415.551 165.367 414.218 164.3C412.951 163.167 411.218 162.6 409.018 162.6H395.618Z" fill="#343434"/>
<path d="M502.809 218H448.809V148H502.009V163.8H466.809V173.3H494.809V188.5H466.809V202.2H502.809V218Z" fill="#343434"/>
<path d="M530.97 218H512.97V148H544.17C552.036 148 558.236 150.033 562.77 154.1C567.37 158.167 569.67 163.433 569.67 169.9C569.67 176.367 567.37 181.667 562.77 185.8C558.236 189.867 552.036 191.9 544.17 191.9H530.97V218ZM530.97 163.2V177.1H542.87C545.469 177.1 547.536 176.5 549.07 175.3C550.669 174.033 551.47 172.3 551.47 170.1C551.47 167.9 550.703 166.2 549.17 165C547.636 163.8 545.536 163.2 542.87 163.2H530.97Z" fill="#343434"/>
<path d="M622.43 182H621.62V173.414H629.09V182H628.28V174.152H622.43V182Z" fill="black"/>
<path d="M633.531 176.168L633.603 173.414H639.651V182H638.841V174.152H634.395L634.341 175.97C634.329 176.798 634.281 177.536 634.197 178.184C634.125 178.796 633.993 179.414 633.801 180.038C633.417 181.358 632.619 182.018 631.407 182.018C631.251 182.018 631.143 182.012 631.083 182V181.244C631.143 181.256 631.263 181.262 631.443 181.262C632.271 181.262 632.823 180.704 633.099 179.588C633.327 178.712 633.471 177.572 633.531 176.168Z" fill="black"/>
<path d="M644.167 180.398C644.899 181.106 645.787 181.46 646.831 181.46C647.887 181.46 648.769 181.106 649.477 180.398C650.197 179.678 650.557 178.784 650.557 177.716C650.557 176.648 650.197 175.754 649.477 175.034C648.769 174.314 647.887 173.954 646.831 173.954C645.775 173.954 644.887 174.314 644.167 175.034C643.459 175.766 643.105 176.66 643.105 177.716C643.105 178.772 643.459 179.666 644.167 180.398ZM650.107 180.902C649.267 181.778 648.175 182.216 646.831 182.216C645.475 182.216 644.377 181.778 643.537 180.902C642.697 180.026 642.277 178.964 642.277 177.716C642.277 176.468 642.697 175.406 643.537 174.53C644.389 173.642 645.487 173.198 646.831 173.198C648.163 173.198 649.255 173.642 650.107 174.53C650.959 175.418 651.385 176.48 651.385 177.716C651.385 178.952 650.959 180.014 650.107 180.902Z" fill="black"/>
<path d="M667.031 184.682H666.275V182H653.999V173.414H654.809V181.262H659.273V173.414H660.083V181.262H664.547V173.414H665.357V181.262H667.031V184.682Z" fill="black"/>
<path d="M672.047 181.46C672.731 181.46 673.373 181.298 673.973 180.974C674.573 180.65 675.059 180.242 675.431 179.75V178.328C674.399 177.656 673.349 177.32 672.281 177.32C671.381 177.32 670.667 177.512 670.139 177.896C669.611 178.268 669.347 178.766 669.347 179.39C669.347 180.062 669.599 180.578 670.103 180.938C670.607 181.286 671.255 181.46 672.047 181.46ZM671.813 182.216C670.925 182.216 670.145 181.97 669.473 181.478C668.825 180.974 668.501 180.284 668.501 179.408C668.501 178.556 668.837 177.878 669.509 177.374C670.181 176.858 671.033 176.6 672.065 176.6C673.289 176.6 674.411 176.912 675.431 177.536V176.402C675.431 174.77 674.411 173.954 672.371 173.954C671.339 173.954 670.367 174.26 669.455 174.872V174.044C670.331 173.48 671.351 173.198 672.515 173.198C673.667 173.198 674.573 173.468 675.233 174.008C675.905 174.536 676.241 175.31 676.241 176.33V180.146C676.241 180.518 676.325 180.818 676.493 181.046C676.661 181.262 676.889 181.37 677.177 181.37C677.369 181.37 677.537 181.334 677.681 181.262V181.928C677.513 182.024 677.279 182.072 676.979 182.072C676.571 182.072 676.229 181.946 675.953 181.694C675.689 181.43 675.539 181.058 675.503 180.578C674.567 181.67 673.337 182.216 671.813 182.216Z" fill="black"/>
<path d="M679.389 184.682H678.597V181.262H679.659C680.751 179.918 681.297 177.65 681.297 174.458L681.315 173.414H687.363V181.262H689.019V184.682H688.227V182H679.389V184.682ZM680.595 181.262H686.553V174.152H682.089V174.764C682.089 177.608 681.591 179.774 680.595 181.262Z" fill="black"/>
<path d="M692.039 182H691.229V173.414H692.039V177.032L696.557 173.414H697.745L692.903 177.302L698.393 182H697.169L692.039 177.608V182Z" fill="black"/>
<path d="M703.143 181.46C703.827 181.46 704.469 181.298 705.069 180.974C705.669 180.65 706.155 180.242 706.527 179.75V178.328C705.495 177.656 704.445 177.32 703.377 177.32C702.477 177.32 701.763 177.512 701.235 177.896C700.707 178.268 700.443 178.766 700.443 179.39C700.443 180.062 700.695 180.578 701.199 180.938C701.703 181.286 702.351 181.46 703.143 181.46ZM702.909 182.216C702.021 182.216 701.241 181.97 700.569 181.478C699.921 180.974 699.597 180.284 699.597 179.408C699.597 178.556 699.933 177.878 700.605 177.374C701.277 176.858 702.129 176.6 703.161 176.6C704.385 176.6 705.507 176.912 706.527 177.536V176.402C706.527 174.77 705.507 173.954 703.467 173.954C702.435 173.954 701.463 174.26 700.551 174.872V174.044C701.427 173.48 702.447 173.198 703.611 173.198C704.763 173.198 705.669 173.468 706.329 174.008C707.001 174.536 707.337 175.31 707.337 176.33V180.146C707.337 180.518 707.421 180.818 707.589 181.046C707.757 181.262 707.985 181.37 708.273 181.37C708.465 181.37 708.633 181.334 708.777 181.262V181.928C708.609 182.024 708.375 182.072 708.075 182.072C707.667 182.072 707.325 181.946 707.049 181.694C706.785 181.43 706.635 181.058 706.599 180.578C705.663 181.67 704.433 182.216 702.909 182.216Z" fill="black"/>
<path d="M718.019 182.216C716.963 182.216 716.045 181.964 715.265 181.46V180.65C716.045 181.19 716.933 181.46 717.929 181.46C718.973 181.46 719.843 181.136 720.539 180.488C721.271 179.84 721.661 179.024 721.709 178.04H717.137V177.302H721.709C721.625 176.354 721.223 175.556 720.503 174.908C719.795 174.272 718.937 173.954 717.929 173.954C717.089 173.954 716.261 174.182 715.445 174.638V173.864C716.177 173.42 717.035 173.198 718.019 173.198C719.339 173.198 720.419 173.636 721.259 174.512C722.111 175.4 722.537 176.462 722.537 177.698C722.537 178.946 722.111 180.014 721.259 180.902C720.419 181.778 719.339 182.216 718.019 182.216Z" fill="black"/>
<path d="M725.965 182H725.155V173.414H725.965V177.032L730.483 173.414H731.671L726.829 177.302L732.319 182H731.095L725.965 177.608V182Z" fill="black"/>
<path d="M737.744 182.216C736.424 182.216 735.344 181.778 734.504 180.902C733.652 180.014 733.226 178.946 733.226 177.698C733.226 176.462 733.652 175.4 734.504 174.512C735.344 173.636 736.43 173.198 737.762 173.198C738.722 173.198 739.586 173.42 740.354 173.864V174.656C739.55 174.188 738.716 173.954 737.852 173.954C736.772 173.954 735.866 174.314 735.134 175.034C734.414 175.754 734.054 176.648 734.054 177.716C734.054 178.784 734.414 179.678 735.134 180.398C735.878 181.106 736.784 181.46 737.852 181.46C738.86 181.46 739.748 181.19 740.516 180.65V181.46C739.76 181.964 738.836 182.216 737.744 182.216Z" fill="black"/>
<path d="M744.106 182H743.296V173.414H750.766V182H749.956V174.152H744.106V182Z" fill="black"/>
<path d="M758.068 182.216C756.712 182.216 755.596 181.796 754.72 180.956C753.832 180.104 753.388 179.024 753.388 177.716C753.388 176.42 753.784 175.346 754.576 174.494C755.368 173.63 756.394 173.198 757.654 173.198C758.362 173.198 758.986 173.342 759.526 173.63C760.066 173.906 760.48 174.284 760.768 174.764C761.332 175.664 761.614 176.594 761.614 177.554V177.824H754.198C754.222 178.916 754.6 179.792 755.332 180.452C756.076 181.124 757.024 181.46 758.176 181.46C759.208 181.46 760.132 181.19 760.948 180.65V181.442C760.276 181.958 759.316 182.216 758.068 182.216ZM754.216 177.122H760.804C760.804 176.786 760.744 176.444 760.624 176.096C760.504 175.748 760.324 175.412 760.084 175.088C759.856 174.752 759.526 174.482 759.094 174.278C758.662 174.062 758.176 173.954 757.636 173.954C756.628 173.954 755.818 174.278 755.206 174.926C754.594 175.574 754.264 176.306 754.216 177.122Z" fill="black"/>
<path d="M768.587 173.198C769.871 173.198 770.921 173.642 771.737 174.53C772.553 175.418 772.961 176.474 772.961 177.698C772.961 178.934 772.553 179.996 771.737 180.884C770.921 181.772 769.871 182.216 768.587 182.216C767.063 182.216 765.881 181.634 765.041 180.47V185.6H764.231V173.414H765.041V174.926C765.893 173.774 767.075 173.198 768.587 173.198ZM768.443 173.954C767.699 173.954 767.015 174.152 766.391 174.548C765.767 174.944 765.317 175.454 765.041 176.078V179.318C765.329 179.942 765.785 180.458 766.409 180.866C767.045 181.262 767.723 181.46 768.443 181.46C769.499 181.46 770.375 181.1 771.071 180.38C771.779 179.648 772.133 178.754 772.133 177.698C772.133 176.63 771.779 175.742 771.071 175.034C770.375 174.314 769.499 173.954 768.443 173.954Z" fill="black"/>
<path d="M778.241 182H777.431V174.152H774.155V173.414H781.517V174.152H778.241V182Z" fill="black"/>
<path d="M784.465 182H783.655V173.414H784.465V177.212H790.459V173.414H791.269V182H790.459V177.95H784.465V182Z" fill="black"/>
<path d="M795.778 180.398C796.51 181.106 797.398 181.46 798.442 181.46C799.498 181.46 800.38 181.106 801.088 180.398C801.808 179.678 802.168 178.784 802.168 177.716C802.168 176.648 801.808 175.754 801.088 175.034C800.38 174.314 799.498 173.954 798.442 173.954C797.386 173.954 796.498 174.314 795.778 175.034C795.07 175.766 794.716 176.66 794.716 177.716C794.716 178.772 795.07 179.666 795.778 180.398ZM801.718 180.902C800.878 181.778 799.786 182.216 798.442 182.216C797.086 182.216 795.988 181.778 795.148 180.902C794.308 180.026 793.888 178.964 793.888 177.716C793.888 176.468 794.308 175.406 795.148 174.53C796 173.642 797.098 173.198 798.442 173.198C799.774 173.198 800.866 173.642 801.718 174.53C802.57 175.418 802.996 176.48 802.996 177.716C802.996 178.952 802.57 180.014 801.718 180.902Z" fill="black"/>
<path d="M806.42 182H805.61V173.414H811.892V174.152H806.42V182Z" fill="black"/>
<path d="M815.079 180.398C815.811 181.106 816.699 181.46 817.743 181.46C818.799 181.46 819.681 181.106 820.389 180.398C821.109 179.678 821.469 178.784 821.469 177.716C821.469 176.648 821.109 175.754 820.389 175.034C819.681 174.314 818.799 173.954 817.743 173.954C816.687 173.954 815.799 174.314 815.079 175.034C814.371 175.766 814.017 176.66 814.017 177.716C814.017 178.772 814.371 179.666 815.079 180.398ZM821.019 180.902C820.179 181.778 819.087 182.216 817.743 182.216C816.387 182.216 815.289 181.778 814.449 180.902C813.609 180.026 813.189 178.964 813.189 177.716C813.189 176.468 813.609 175.406 814.449 174.53C815.301 173.642 816.399 173.198 817.743 173.198C819.075 173.198 820.167 173.642 821.019 174.53C821.871 175.418 822.297 176.48 822.297 177.716C822.297 178.952 821.871 180.014 821.019 180.902Z" fill="black"/>
<path d="M833.615 182.216C832.295 182.216 831.215 181.778 830.375 180.902C829.523 180.014 829.097 178.946 829.097 177.698C829.097 176.462 829.523 175.4 830.375 174.512C831.215 173.636 832.301 173.198 833.633 173.198C834.593 173.198 835.457 173.42 836.225 173.864V174.656C835.421 174.188 834.587 173.954 833.723 173.954C832.643 173.954 831.737 174.314 831.005 175.034C830.285 175.754 829.925 176.648 829.925 177.716C829.925 178.784 830.285 179.678 831.005 180.398C831.749 181.106 832.655 181.46 833.723 181.46C834.731 181.46 835.619 181.19 836.387 180.65V181.46C835.631 181.964 834.707 182.216 833.615 182.216Z" fill="black"/>
<path d="M840.251 180.398C840.983 181.106 841.871 181.46 842.915 181.46C843.971 181.46 844.853 181.106 845.561 180.398C846.281 179.678 846.641 178.784 846.641 177.716C846.641 176.648 846.281 175.754 845.561 175.034C844.853 174.314 843.971 173.954 842.915 173.954C841.859 173.954 840.971 174.314 840.251 175.034C839.543 175.766 839.189 176.66 839.189 177.716C839.189 178.772 839.543 179.666 840.251 180.398ZM846.191 180.902C845.351 181.778 844.259 182.216 842.915 182.216C841.559 182.216 840.461 181.778 839.621 180.902C838.781 180.026 838.361 178.964 838.361 177.716C838.361 176.468 838.781 175.406 839.621 174.53C840.473 173.642 841.571 173.198 842.915 173.198C844.247 173.198 845.339 173.642 846.191 174.53C847.043 175.418 847.469 176.48 847.469 177.716C847.469 178.952 847.043 180.014 846.191 180.902Z" fill="black"/>
<path d="M850.893 182H850.083V173.414H857.553V182H856.743V174.152H850.893V182Z" fill="black"/>
<path d="M865.162 173.198C866.446 173.198 867.496 173.642 868.312 174.53C869.128 175.418 869.536 176.474 869.536 177.698C869.536 178.934 869.128 179.996 868.312 180.884C867.496 181.772 866.446 182.216 865.162 182.216C863.638 182.216 862.456 181.634 861.616 180.47V185.6H860.806V173.414H861.616V174.926C862.468 173.774 863.65 173.198 865.162 173.198ZM865.018 173.954C864.273 173.954 863.59 174.152 862.966 174.548C862.342 174.944 861.892 175.454 861.616 176.078V179.318C861.904 179.942 862.359 180.458 862.984 180.866C863.62 181.262 864.298 181.46 865.018 181.46C866.074 181.46 866.95 181.1 867.646 180.38C868.354 179.648 868.708 178.754 868.708 177.698C868.708 176.63 868.354 175.742 867.646 175.034C866.95 174.314 866.074 173.954 865.018 173.954Z" fill="black"/>
<path d="M873.403 180.398C874.135 181.106 875.023 181.46 876.067 181.46C877.123 181.46 878.005 181.106 878.713 180.398C879.433 179.678 879.793 178.784 879.793 177.716C879.793 176.648 879.433 175.754 878.713 175.034C878.005 174.314 877.123 173.954 876.067 173.954C875.011 173.954 874.123 174.314 873.403 175.034C872.695 175.766 872.341 176.66 872.341 177.716C872.341 178.772 872.695 179.666 873.403 180.398ZM879.343 180.902C878.503 181.778 877.411 182.216 876.067 182.216C874.711 182.216 873.613 181.778 872.773 180.902C871.933 180.026 871.513 178.964 871.513 177.716C871.513 176.468 871.933 175.406 872.773 174.53C873.625 173.642 874.723 173.198 876.067 173.198C877.399 173.198 878.491 173.642 879.343 174.53C880.195 175.418 880.621 176.48 880.621 177.716C880.621 178.952 880.195 180.014 879.343 180.902Z" fill="black"/>
<path d="M887.969 182H883.235V173.414H887.609C888.401 173.414 889.019 173.612 889.463 174.008C889.907 174.392 890.129 174.914 890.129 175.574C890.129 176.534 889.757 177.17 889.013 177.482C890.141 177.806 890.705 178.55 890.705 179.714C890.705 180.41 890.459 180.968 889.967 181.388C889.487 181.796 888.821 182 887.969 182ZM884.045 177.95V181.262H887.807C888.467 181.262 888.977 181.118 889.337 180.83C889.697 180.542 889.877 180.134 889.877 179.606C889.877 179.078 889.697 178.67 889.337 178.382C888.977 178.094 888.467 177.95 887.807 177.95H884.045ZM884.045 174.152V177.212H887.393C888.005 177.212 888.473 177.08 888.797 176.816C889.133 176.552 889.301 176.174 889.301 175.682C889.301 175.19 889.133 174.812 888.797 174.548C888.473 174.284 888.005 174.152 887.393 174.152H884.045Z" fill="black"/>
<path d="M894.778 180.398C895.51 181.106 896.398 181.46 897.442 181.46C898.498 181.46 899.38 181.106 900.088 180.398C900.808 179.678 901.168 178.784 901.168 177.716C901.168 176.648 900.808 175.754 900.088 175.034C899.38 174.314 898.498 173.954 897.442 173.954C896.386 173.954 895.498 174.314 894.778 175.034C894.07 175.766 893.716 176.66 893.716 177.716C893.716 178.772 894.07 179.666 894.778 180.398ZM900.718 180.902C899.878 181.778 898.786 182.216 897.442 182.216C896.086 182.216 894.988 181.778 894.148 180.902C893.308 180.026 892.888 178.964 892.888 177.716C892.888 176.468 893.308 175.406 894.148 174.53C895 173.642 896.098 173.198 897.442 173.198C898.774 173.198 899.866 173.642 900.718 174.53C901.57 175.418 901.996 176.48 901.996 177.716C901.996 178.952 901.57 180.014 900.718 180.902Z" fill="black"/>
<path d="M903.89 182H902.774L907.562 177.392L903.224 173.414H904.304L908.372 177.194V173.414H909.164V177.176L913.232 173.414H914.312L909.992 177.392L914.762 182H913.628L909.164 177.68V182H908.372V177.662L903.89 182Z" fill="black"/>
<path d="M916.43 184.682H915.638V181.262H916.7C917.792 179.918 918.338 177.65 918.338 174.458L918.356 173.414H924.404V181.262H926.06V184.682H925.268V182H916.43V184.682ZM917.636 181.262H923.594V174.152H919.13V174.764C919.13 177.608 918.632 179.774 917.636 181.262Z" fill="black"/>
<path d="M932.32 182.216C930.964 182.216 929.848 181.796 928.972 180.956C928.084 180.104 927.64 179.024 927.64 177.716C927.64 176.42 928.036 175.346 928.828 174.494C929.62 173.63 930.646 173.198 931.906 173.198C932.614 173.198 933.238 173.342 933.778 173.63C934.318 173.906 934.732 174.284 935.02 174.764C935.584 175.664 935.866 176.594 935.866 177.554V177.824H928.45C928.474 178.916 928.852 179.792 929.584 180.452C930.328 181.124 931.276 181.46 932.428 181.46C933.46 181.46 934.384 181.19 935.2 180.65V181.442C934.528 181.958 933.568 182.216 932.32 182.216ZM928.468 177.122H935.056C935.056 176.786 934.996 176.444 934.876 176.096C934.756 175.748 934.576 175.412 934.336 175.088C934.108 174.752 933.778 174.482 933.346 174.278C932.914 174.062 932.428 173.954 931.888 173.954C930.88 173.954 930.07 174.278 929.458 174.926C928.846 175.574 928.516 176.306 928.468 177.122Z" fill="black"/>
<path d="M939.293 182H938.483V173.414H939.293V177.212H945.287V173.414H946.097V182H945.287V177.95H939.293V182Z" fill="black"/>
<path d="M950.103 182H949.347V173.414H950.157V180.776L956.313 173.414H957.051V182H956.241V174.656L950.103 182Z" fill="black"/>
<path d="M960.621 182H959.649L962.367 178.49C961.611 178.418 961.023 178.16 960.603 177.716C960.183 177.26 959.973 176.672 959.973 175.952C959.973 175.184 960.231 174.572 960.747 174.116C961.275 173.648 962.001 173.414 962.925 173.414H967.263V182H966.453V178.598H963.231L960.621 182ZM963.033 177.86H966.453V174.152H963.033C962.325 174.152 961.773 174.314 961.377 174.638C960.993 174.962 960.801 175.418 960.801 176.006C960.801 176.582 960.993 177.038 961.377 177.374C961.773 177.698 962.325 177.86 963.033 177.86Z" fill="black"/>
<path d="M970.024 184.736H969.322L970.69 180.434H971.698L970.024 184.736Z" fill="black"/>
<path d="M981.602 182H980.792V174.152H977.516V173.414H984.878V174.152H981.602V182Z" fill="black"/>
<path d="M991.372 173.198C992.656 173.198 993.706 173.642 994.522 174.53C995.339 175.418 995.746 176.474 995.746 177.698C995.746 178.934 995.339 179.996 994.522 180.884C993.706 181.772 992.656 182.216 991.372 182.216C989.848 182.216 988.667 181.634 987.827 180.47V185.6H987.016V173.414H987.827V174.926C988.679 173.774 989.86 173.198 991.372 173.198ZM991.229 173.954C990.484 173.954 989.801 174.152 989.177 174.548C988.552 174.944 988.103 175.454 987.827 176.078V179.318C988.115 179.942 988.57 180.458 989.194 180.866C989.83 181.262 990.509 181.46 991.229 181.46C992.285 181.46 993.16 181.1 993.856 180.38C994.564 179.648 994.918 178.754 994.918 177.698C994.918 176.63 994.564 175.742 993.856 175.034C993.16 174.314 992.285 173.954 991.229 173.954Z" fill="black"/>
<path d="M1001.16 181.46C1001.85 181.46 1002.49 181.298 1003.09 180.974C1003.69 180.65 1004.17 180.242 1004.55 179.75V178.328C1003.51 177.656 1002.46 177.32 1001.4 177.32C1000.5 177.32 999.782 177.512 999.254 177.896C998.726 178.268 998.462 178.766 998.462 179.39C998.462 180.062 998.714 180.578 999.218 180.938C999.722 181.286 1000.37 181.46 1001.16 181.46ZM1000.93 182.216C1000.04 182.216 999.26 181.97 998.588 181.478C997.94 180.974 997.616 180.284 997.616 179.408C997.616 178.556 997.952 177.878 998.624 177.374C999.296 176.858 1000.15 176.6 1001.18 176.6C1002.4 176.6 1003.53 176.912 1004.55 177.536V176.402C1004.55 174.77 1003.53 173.954 1001.49 173.954C1000.45 173.954 999.482 174.26 998.57 174.872V174.044C999.446 173.48 1000.47 173.198 1001.63 173.198C1002.78 173.198 1003.69 173.468 1004.35 174.008C1005.02 174.536 1005.36 175.31 1005.36 176.33V180.146C1005.36 180.518 1005.44 180.818 1005.61 181.046C1005.78 181.262 1006 181.37 1006.29 181.37C1006.48 181.37 1006.65 181.334 1006.8 181.262V181.928C1006.63 182.024 1006.39 182.072 1006.09 182.072C1005.69 182.072 1005.34 181.946 1005.07 181.694C1004.8 181.43 1004.65 181.058 1004.62 180.578C1003.68 181.67 1002.45 182.216 1000.93 182.216Z" fill="black"/>
<path d="M1009.76 182H1008.95V173.414H1009.76V177.212H1015.76V173.414H1016.57V182H1015.76V177.95H1009.76V182Z" fill="black"/>
<path d="M1023.71 182.216C1022.39 182.216 1021.31 181.778 1020.47 180.902C1019.61 180.014 1019.19 178.946 1019.19 177.698C1019.19 176.462 1019.61 175.4 1020.47 174.512C1021.31 173.636 1022.39 173.198 1023.72 173.198C1024.68 173.198 1025.55 173.42 1026.32 173.864V174.656C1025.51 174.188 1024.68 173.954 1023.81 173.954C1022.73 173.954 1021.83 174.314 1021.1 175.034C1020.38 175.754 1020.02 176.648 1020.02 177.716C1020.02 178.784 1020.38 179.678 1021.1 180.398C1021.84 181.106 1022.75 181.46 1023.81 181.46C1024.82 181.46 1025.71 181.19 1026.48 180.65V181.46C1025.72 181.964 1024.8 182.216 1023.71 182.216Z" fill="black"/>
<path d="M1034.28 185.528H1033.47V182.162C1031.92 182.138 1030.7 181.73 1029.8 180.938C1028.9 180.134 1028.45 179.06 1028.45 177.716C1028.45 176.36 1028.9 175.286 1029.8 174.494C1030.7 173.69 1031.92 173.276 1033.47 173.252V169.4H1034.28V173.252C1035.83 173.276 1037.05 173.69 1037.95 174.494C1038.87 175.286 1039.32 176.36 1039.32 177.716C1039.32 179.06 1038.87 180.134 1037.95 180.938C1037.05 181.73 1035.83 182.138 1034.28 182.162V185.528ZM1034.28 173.99V181.424C1035.49 181.424 1036.5 181.106 1037.31 180.47C1038.11 179.846 1038.51 178.928 1038.51 177.716C1038.51 176.504 1038.11 175.586 1037.31 174.962C1036.51 174.314 1035.51 173.99 1034.28 173.99ZM1033.47 181.424V173.99C1032.27 173.99 1031.27 174.314 1030.45 174.962C1029.65 175.586 1029.24 176.504 1029.24 177.716C1029.24 178.928 1029.65 179.846 1030.45 180.47C1031.27 181.106 1032.27 181.424 1033.47 181.424Z" fill="black"/>
<path d="M1045.98 182.216C1044.62 182.216 1043.51 181.796 1042.63 180.956C1041.74 180.104 1041.3 179.024 1041.3 177.716C1041.3 176.42 1041.7 175.346 1042.49 174.494C1043.28 173.63 1044.31 173.198 1045.57 173.198C1046.27 173.198 1046.9 173.342 1047.44 173.63C1047.98 173.906 1048.39 174.284 1048.68 174.764C1049.24 175.664 1049.53 176.594 1049.53 177.554V177.824H1042.11C1042.13 178.916 1042.51 179.792 1043.24 180.452C1043.99 181.124 1044.94 181.46 1046.09 181.46C1047.12 181.46 1048.04 181.19 1048.86 180.65V181.442C1048.19 181.958 1047.23 182.216 1045.98 182.216ZM1042.13 177.122H1048.72C1048.72 176.786 1048.66 176.444 1048.54 176.096C1048.42 175.748 1048.24 175.412 1048 175.088C1047.77 174.752 1047.44 174.482 1047.01 174.278C1046.57 174.062 1046.09 173.954 1045.55 173.954C1044.54 173.954 1043.73 174.278 1043.12 174.926C1042.51 175.574 1042.18 176.306 1042.13 177.122Z" fill="black"/>
<path d="M1056.5 173.198C1057.78 173.198 1058.83 173.642 1059.65 174.53C1060.47 175.418 1060.87 176.474 1060.87 177.698C1060.87 178.934 1060.47 179.996 1059.65 180.884C1058.83 181.772 1057.78 182.216 1056.5 182.216C1054.98 182.216 1053.79 181.634 1052.95 180.47V185.6H1052.14V173.414H1052.95V174.926C1053.81 173.774 1054.99 173.198 1056.5 173.198ZM1056.36 173.954C1055.61 173.954 1054.93 174.152 1054.3 174.548C1053.68 174.944 1053.23 175.454 1052.95 176.078V179.318C1053.24 179.942 1053.7 180.458 1054.32 180.866C1054.96 181.262 1055.64 181.46 1056.36 181.46C1057.41 181.46 1058.29 181.1 1058.98 180.38C1059.69 179.648 1060.05 178.754 1060.05 177.698C1060.05 176.63 1059.69 175.742 1058.98 175.034C1058.29 174.314 1057.41 173.954 1056.36 173.954Z" fill="black"/>
<path d="M1066.29 181.46C1066.97 181.46 1067.62 181.298 1068.22 180.974C1068.82 180.65 1069.3 180.242 1069.67 179.75V178.328C1068.64 177.656 1067.59 177.32 1066.52 177.32C1065.62 177.32 1064.91 177.512 1064.38 177.896C1063.85 178.268 1063.59 178.766 1063.59 179.39C1063.59 180.062 1063.84 180.578 1064.35 180.938C1064.85 181.286 1065.5 181.46 1066.29 181.46ZM1066.06 182.216C1065.17 182.216 1064.39 181.97 1063.72 181.478C1063.07 180.974 1062.74 180.284 1062.74 179.408C1062.74 178.556 1063.08 177.878 1063.75 177.374C1064.42 176.858 1065.28 176.6 1066.31 176.6C1067.53 176.6 1068.65 176.912 1069.67 177.536V176.402C1069.67 174.77 1068.65 173.954 1066.61 173.954C1065.58 173.954 1064.61 174.26 1063.7 174.872V174.044C1064.57 173.48 1065.59 173.198 1066.76 173.198C1067.91 173.198 1068.82 173.468 1069.48 174.008C1070.15 174.536 1070.48 175.31 1070.48 176.33V180.146C1070.48 180.518 1070.57 180.818 1070.74 181.046C1070.9 181.262 1071.13 181.37 1071.42 181.37C1071.61 181.37 1071.78 181.334 1071.92 181.262V181.928C1071.76 182.024 1071.52 182.072 1071.22 182.072C1070.81 182.072 1070.47 181.946 1070.2 181.694C1069.93 181.43 1069.78 181.058 1069.75 180.578C1068.81 181.67 1067.58 182.216 1066.06 182.216Z" fill="black"/>
<path d="M1081.53 182.216C1080.33 182.216 1079.29 182.012 1078.43 181.604V180.794C1079.33 181.238 1080.33 181.46 1081.44 181.46C1082.38 181.46 1083.15 181.292 1083.72 180.956C1084.3 180.608 1084.59 180.146 1084.59 179.57C1084.59 179.03 1084.34 178.604 1083.85 178.292C1083.37 177.968 1082.73 177.806 1081.92 177.806H1080.48V177.068H1081.92C1082.67 177.068 1083.24 176.924 1083.63 176.636C1084.04 176.348 1084.24 175.988 1084.24 175.556C1084.24 175.04 1084 174.644 1083.52 174.368C1083.06 174.092 1082.4 173.954 1081.56 173.954C1080.59 173.954 1079.64 174.146 1078.7 174.53V173.738C1079.58 173.378 1080.57 173.198 1081.69 173.198C1082.67 173.198 1083.48 173.402 1084.1 173.81C1084.74 174.218 1085.05 174.758 1085.05 175.43C1085.05 176.354 1084.52 177.008 1083.45 177.392C1084.76 177.752 1085.41 178.496 1085.41 179.624C1085.41 180.404 1085.06 181.034 1084.35 181.514C1083.66 181.982 1082.71 182.216 1081.53 182.216Z" fill="black"/>
<path d="M1088.99 182H1088.18V173.414H1088.99V177.212H1094.98V173.414H1095.79V182H1094.98V177.95H1088.99V182Z" fill="black"/>
<path d="M1101.85 181.46C1102.53 181.46 1103.18 181.298 1103.78 180.974C1104.38 180.65 1104.86 180.242 1105.23 179.75V178.328C1104.2 177.656 1103.15 177.32 1102.08 177.32C1101.18 177.32 1100.47 177.512 1099.94 177.896C1099.41 178.268 1099.15 178.766 1099.15 179.39C1099.15 180.062 1099.4 180.578 1099.91 180.938C1100.41 181.286 1101.06 181.46 1101.85 181.46ZM1101.62 182.216C1100.73 182.216 1099.95 181.97 1099.28 181.478C1098.63 180.974 1098.3 180.284 1098.3 179.408C1098.3 178.556 1098.64 177.878 1099.31 177.374C1099.98 176.858 1100.84 176.6 1101.87 176.6C1103.09 176.6 1104.21 176.912 1105.23 177.536V176.402C1105.23 174.77 1104.21 173.954 1102.17 173.954C1101.14 173.954 1100.17 174.26 1099.26 174.872V174.044C1100.13 173.48 1101.15 173.198 1102.32 173.198C1103.47 173.198 1104.38 173.468 1105.04 174.008C1105.71 174.536 1106.04 175.31 1106.04 176.33V180.146C1106.04 180.518 1106.13 180.818 1106.3 181.046C1106.46 181.262 1106.69 181.37 1106.98 181.37C1107.17 181.37 1107.34 181.334 1107.48 181.262V181.928C1107.32 182.024 1107.08 182.072 1106.78 182.072C1106.37 182.072 1106.03 181.946 1105.76 181.694C1105.49 181.43 1105.34 181.058 1105.31 180.578C1104.37 181.67 1103.14 182.216 1101.62 182.216Z" fill="black"/>
<path d="M1110.45 182H1109.64V173.414H1110.45V177.212H1116.45V173.414H1117.26V182H1116.45V177.95H1110.45V182Z" fill="black"/>
<path d="M1121.26 182H1120.5V173.414H1121.31V180.776L1127.47 173.414H1128.21V182H1127.4V174.656L1121.26 182Z" fill="black"/>
<path d="M1132.23 182H1131.47V173.414H1132.28V180.776L1138.44 173.414H1139.18V182H1138.37V174.656L1132.23 182ZM1135.31 171.956C1134.47 171.956 1133.79 171.722 1133.27 171.254C1132.77 170.774 1132.52 170.156 1132.52 169.4H1133.26C1133.26 169.952 1133.44 170.402 1133.81 170.75C1134.2 171.098 1134.7 171.272 1135.31 171.272C1135.91 171.272 1136.39 171.098 1136.77 170.75C1137.14 170.39 1137.32 169.94 1137.32 169.4H1138.06C1138.06 170.132 1137.8 170.744 1137.27 171.236C1136.75 171.716 1136.1 171.956 1135.31 171.956Z" fill="black"/>
<path d="M1148.01 182H1147.26V173.414H1148.07V180.776L1154.22 173.414H1154.96V182H1154.15V174.656L1148.01 182Z" fill="black"/>
<path d="M1165.31 182H1164.5V174.152H1161.23V173.414H1168.59V174.152H1165.31V182Z" fill="black"/>
<path d="M1174.48 182.216C1173.12 182.216 1172 181.796 1171.13 180.956C1170.24 180.104 1169.8 179.024 1169.8 177.716C1169.8 176.42 1170.19 175.346 1170.98 174.494C1171.78 173.63 1172.8 173.198 1174.06 173.198C1174.77 173.198 1175.39 173.342 1175.93 173.63C1176.47 173.906 1176.89 174.284 1177.18 174.764C1177.74 175.664 1178.02 176.594 1178.02 177.554V177.824H1170.61C1170.63 178.916 1171.01 179.792 1171.74 180.452C1172.48 181.124 1173.43 181.46 1174.58 181.46C1175.62 181.46 1176.54 181.19 1177.36 180.65V181.442C1176.68 181.958 1175.72 182.216 1174.48 182.216ZM1170.62 177.122H1177.21C1177.21 176.786 1177.15 176.444 1177.03 176.096C1176.91 175.748 1176.73 175.412 1176.49 175.088C1176.26 174.752 1175.93 174.482 1175.5 174.278C1175.07 174.062 1174.58 173.954 1174.04 173.954C1173.04 173.954 1172.23 174.278 1171.61 174.926C1171 175.574 1170.67 176.306 1170.62 177.122Z" fill="black"/>
<path d="M1180.46 182H1179.49L1183.25 177.428L1179.98 173.414H1180.99L1183.76 176.798L1186.55 173.414H1187.5L1184.24 177.392L1188.01 182H1186.98L1183.72 178.022L1180.46 182Z" fill="black"/>
<path d="M1191.03 182H1190.22V173.414H1191.03V177.212H1197.02V173.414H1197.83V182H1197.02V177.95H1191.03V182Z" fill="black"/>
<path d="M1202.34 180.398C1203.07 181.106 1203.96 181.46 1205.01 181.46C1206.06 181.46 1206.94 181.106 1207.65 180.398C1208.37 179.678 1208.73 178.784 1208.73 177.716C1208.73 176.648 1208.37 175.754 1207.65 175.034C1206.94 174.314 1206.06 173.954 1205.01 173.954C1203.95 173.954 1203.06 174.314 1202.34 175.034C1201.63 175.766 1201.28 176.66 1201.28 177.716C1201.28 178.772 1201.63 179.666 1202.34 180.398ZM1208.28 180.902C1207.44 181.778 1206.35 182.216 1205.01 182.216C1203.65 182.216 1202.55 181.778 1201.71 180.902C1200.87 180.026 1200.45 178.964 1200.45 177.716C1200.45 176.468 1200.87 175.406 1201.71 174.53C1202.56 173.642 1203.66 173.198 1205.01 173.198C1206.34 173.198 1207.43 173.642 1208.28 174.53C1209.13 175.418 1209.56 176.48 1209.56 177.716C1209.56 178.952 1209.13 180.014 1208.28 180.902Z" fill="black"/>
<path d="M1213.1 176.168L1213.17 173.414H1219.22V182H1218.41V174.152H1213.96L1213.91 175.97C1213.9 176.798 1213.85 177.536 1213.77 178.184C1213.69 178.796 1213.56 179.414 1213.37 180.038C1212.98 181.358 1212.19 182.018 1210.97 182.018C1210.82 182.018 1210.71 182.012 1210.65 182V181.244C1210.71 181.256 1210.83 181.262 1211.01 181.262C1211.84 181.262 1212.39 180.704 1212.67 179.588C1212.9 178.712 1213.04 177.572 1213.1 176.168Z" fill="black"/>
<path d="M1223.74 180.398C1224.47 181.106 1225.36 181.46 1226.4 181.46C1227.46 181.46 1228.34 181.106 1229.05 180.398C1229.77 179.678 1230.13 178.784 1230.13 177.716C1230.13 176.648 1229.77 175.754 1229.05 175.034C1228.34 174.314 1227.46 173.954 1226.4 173.954C1225.34 173.954 1224.46 174.314 1223.74 175.034C1223.03 175.766 1222.67 176.66 1222.67 177.716C1222.67 178.772 1223.03 179.666 1223.74 180.398ZM1229.68 180.902C1228.84 181.778 1227.74 182.216 1226.4 182.216C1225.04 182.216 1223.95 181.778 1223.11 180.902C1222.27 180.026 1221.85 178.964 1221.85 177.716C1221.85 176.468 1222.27 175.406 1223.11 174.53C1223.96 173.642 1225.06 173.198 1226.4 173.198C1227.73 173.198 1228.82 173.642 1229.68 174.53C1230.53 175.418 1230.95 176.48 1230.95 177.716C1230.95 178.952 1230.53 180.014 1229.68 180.902Z" fill="black"/>
<path d="M1234.38 182H1233.57V173.414H1239.85V174.152H1234.38V182Z" fill="black"/>
<path d="M1242.99 182H1242.23V173.414H1243.04V180.776L1249.2 173.414H1249.94V182H1249.13V174.656L1242.99 182Z" fill="black"/>
<path d="M1253.96 182H1253.2V173.414H1254.01V180.776L1260.17 173.414H1260.91V182H1260.1V174.656L1253.96 182ZM1257.04 171.956C1256.2 171.956 1255.52 171.722 1255 171.254C1254.5 170.774 1254.25 170.156 1254.25 169.4H1254.98C1254.98 169.952 1255.17 170.402 1255.54 170.75C1255.93 171.098 1256.42 171.272 1257.04 171.272C1257.64 171.272 1258.12 171.098 1258.49 170.75C1258.87 170.39 1259.05 169.94 1259.05 169.4H1259.79C1259.79 170.132 1259.53 170.744 1259 171.236C1258.48 171.716 1257.83 171.956 1257.04 171.956Z" fill="black"/>
<path d="M1263.67 184.736H1262.96L1264.33 180.434H1265.34L1263.67 184.736Z" fill="black"/>
<path d="M622.43 205H621.62V196.414H622.43V200.032L626.948 196.414H628.136L623.294 200.302L628.784 205H627.56L622.43 200.608V205Z" fill="black"/>
<path d="M633.533 204.46C634.217 204.46 634.859 204.298 635.459 203.974C636.059 203.65 636.545 203.242 636.917 202.75V201.328C635.885 200.656 634.835 200.32 633.767 200.32C632.867 200.32 632.154 200.512 631.625 200.896C631.097 201.268 630.833 201.766 630.833 202.39C630.833 203.062 631.085 203.578 631.589 203.938C632.094 204.286 632.741 204.46 633.533 204.46ZM633.299 205.216C632.411 205.216 631.631 204.97 630.959 204.478C630.311 203.974 629.987 203.284 629.987 202.408C629.987 201.556 630.323 200.878 630.995 200.374C631.667 199.858 632.519 199.6 633.551 199.6C634.775 199.6 635.897 199.912 636.917 200.536V199.402C636.917 197.77 635.897 196.954 633.857 196.954C632.826 196.954 631.853 197.26 630.941 197.872V197.044C631.817 196.48 632.837 196.198 634.001 196.198C635.153 196.198 636.06 196.468 636.719 197.008C637.391 197.536 637.727 198.31 637.727 199.33V203.146C637.727 203.518 637.811 203.818 637.979 204.046C638.148 204.262 638.375 204.37 638.663 204.37C638.855 204.37 639.023 204.334 639.167 204.262V204.928C638.999 205.024 638.765 205.072 638.465 205.072C638.057 205.072 637.715 204.946 637.439 204.694C637.175 204.43 637.025 204.058 636.989 203.578C636.053 204.67 634.823 205.216 633.299 205.216Z" fill="black"/>
<path d="M640.875 207.682H640.083V204.262H641.145C642.237 202.918 642.783 200.65 642.783 197.458L642.801 196.414H648.849V204.262H650.505V207.682H649.713V205H640.875V207.682ZM642.081 204.262H648.039V197.152H643.575V197.764C643.575 200.608 643.077 202.774 642.081 204.262Z" fill="black"/>
<path d="M657.072 196.198C658.356 196.198 659.406 196.642 660.222 197.53C661.038 198.418 661.446 199.474 661.446 200.698C661.446 201.934 661.038 202.996 660.222 203.884C659.406 204.772 658.356 205.216 657.072 205.216C655.548 205.216 654.366 204.634 653.526 203.47V208.6H652.716V196.414H653.526V197.926C654.378 196.774 655.56 196.198 657.072 196.198ZM656.928 196.954C656.184 196.954 655.5 197.152 654.876 197.548C654.252 197.944 653.802 198.454 653.526 199.078V202.318C653.814 202.942 654.27 203.458 654.894 203.866C655.53 204.262 656.208 204.46 656.928 204.46C657.984 204.46 658.86 204.1 659.556 203.38C660.264 202.648 660.618 201.754 660.618 200.698C660.618 199.63 660.264 198.742 659.556 198.034C658.86 197.314 657.984 196.954 656.928 196.954Z" fill="black"/>
<path d="M665.314 203.398C666.046 204.106 666.934 204.46 667.978 204.46C669.034 204.46 669.916 204.106 670.624 203.398C671.344 202.678 671.704 201.784 671.704 200.716C671.704 199.648 671.344 198.754 670.624 198.034C669.916 197.314 669.034 196.954 667.978 196.954C666.922 196.954 666.034 197.314 665.314 198.034C664.606 198.766 664.252 199.66 664.252 200.716C664.252 201.772 664.606 202.666 665.314 203.398ZM671.254 203.902C670.414 204.778 669.322 205.216 667.978 205.216C666.622 205.216 665.524 204.778 664.684 203.902C663.844 203.026 663.424 201.964 663.424 200.716C663.424 199.468 663.844 198.406 664.684 197.53C665.536 196.642 666.634 196.198 667.978 196.198C669.31 196.198 670.402 196.642 671.254 197.53C672.106 198.418 672.532 199.48 672.532 200.716C672.532 201.952 672.106 203.014 671.254 203.902Z" fill="black"/>
<path d="M679.879 205H675.145V196.414H679.519C680.311 196.414 680.929 196.612 681.373 197.008C681.817 197.392 682.039 197.914 682.039 198.574C682.039 199.534 681.667 200.17 680.923 200.482C682.051 200.806 682.615 201.55 682.615 202.714C682.615 203.41 682.369 203.968 681.877 204.388C681.397 204.796 680.731 205 679.879 205ZM675.955 200.95V204.262H679.717C680.377 204.262 680.887 204.118 681.247 203.83C681.607 203.542 681.787 203.134 681.787 202.606C681.787 202.078 681.607 201.67 681.247 201.382C680.887 201.094 680.377 200.95 679.717 200.95H675.955ZM675.955 197.152V200.212H679.303C679.915 200.212 680.383 200.08 680.707 199.816C681.043 199.552 681.211 199.174 681.211 198.682C681.211 198.19 681.043 197.812 680.707 197.548C680.383 197.284 679.915 197.152 679.303 197.152H675.955Z" fill="black"/>
<path d="M686.689 203.398C687.421 204.106 688.309 204.46 689.353 204.46C690.409 204.46 691.291 204.106 691.999 203.398C692.719 202.678 693.079 201.784 693.079 200.716C693.079 199.648 692.719 198.754 691.999 198.034C691.291 197.314 690.409 196.954 689.353 196.954C688.297 196.954 687.409 197.314 686.689 198.034C685.981 198.766 685.627 199.66 685.627 200.716C685.627 201.772 685.981 202.666 686.689 203.398ZM692.629 203.902C691.789 204.778 690.697 205.216 689.353 205.216C687.997 205.216 686.899 204.778 686.059 203.902C685.219 203.026 684.799 201.964 684.799 200.716C684.799 199.468 685.219 198.406 686.059 197.53C686.911 196.642 688.009 196.198 689.353 196.198C690.685 196.198 691.777 196.642 692.629 197.53C693.481 198.418 693.907 199.48 693.907 200.716C693.907 201.952 693.481 203.014 692.629 203.902Z" fill="black"/>
<path d="M697.33 205H696.52V196.414H702.802V197.152H697.33V205Z" fill="black"/>
<path d="M705.989 203.398C706.721 204.106 707.609 204.46 708.653 204.46C709.709 204.46 710.591 204.106 711.299 203.398C712.019 202.678 712.379 201.784 712.379 200.716C712.379 199.648 712.019 198.754 711.299 198.034C710.591 197.314 709.709 196.954 708.653 196.954C707.597 196.954 706.709 197.314 705.989 198.034C705.281 198.766 704.927 199.66 704.927 200.716C704.927 201.772 705.281 202.666 705.989 203.398ZM711.929 203.902C711.089 204.778 709.997 205.216 708.653 205.216C707.297 205.216 706.199 204.778 705.359 203.902C704.519 203.026 704.099 201.964 704.099 200.716C704.099 199.468 704.519 198.406 705.359 197.53C706.211 196.642 707.309 196.198 708.653 196.198C709.985 196.198 711.077 196.642 711.929 197.53C712.781 198.418 713.207 199.48 713.207 200.716C713.207 201.952 712.781 203.014 711.929 203.902Z" fill="black"/>
<path d="M721.898 203.398C722.63 204.106 723.518 204.46 724.562 204.46C725.618 204.46 726.5 204.106 727.208 203.398C727.928 202.678 728.288 201.784 728.288 200.716C728.288 199.648 727.928 198.754 727.208 198.034C726.5 197.314 725.618 196.954 724.562 196.954C723.506 196.954 722.618 197.314 721.898 198.034C721.19 198.766 720.836 199.66 720.836 200.716C720.836 201.772 721.19 202.666 721.898 203.398ZM727.838 203.902C726.998 204.778 725.906 205.216 724.562 205.216C723.206 205.216 722.108 204.778 721.268 203.902C720.428 203.026 720.008 201.964 720.008 200.716C720.008 199.468 720.428 198.406 721.268 197.53C722.12 196.642 723.218 196.198 724.562 196.198C725.894 196.198 726.986 196.642 727.838 197.53C728.69 198.418 729.116 199.48 729.116 200.716C729.116 201.952 728.69 203.014 727.838 203.902Z" fill="black"/>
<path d="M735.905 205.216C734.477 205.216 733.349 204.706 732.521 203.686C731.693 202.666 731.279 201.262 731.279 199.474C731.279 197.026 731.927 195.28 733.223 194.236C734.051 193.564 735.407 193.024 737.291 192.616L739.253 192.22V193.03L736.229 193.678C734.885 193.978 733.853 194.542 733.133 195.37C732.437 196.186 732.083 197.422 732.071 199.078C732.443 198.37 732.983 197.812 733.691 197.404C734.399 196.984 735.215 196.774 736.139 196.774C737.279 196.774 738.233 197.152 739.001 197.908C739.781 198.664 740.171 199.636 740.171 200.824C740.171 202.108 739.757 203.164 738.929 203.992C738.089 204.808 737.081 205.216 735.905 205.216ZM735.923 204.46C736.859 204.46 737.663 204.124 738.335 203.452C739.019 202.78 739.361 201.916 739.361 200.86C739.361 199.864 739.025 199.06 738.353 198.448C737.681 197.836 736.889 197.53 735.977 197.53C735.101 197.53 734.309 197.794 733.601 198.322C732.929 198.838 732.443 199.456 732.143 200.176C732.203 201.508 732.563 202.558 733.223 203.326C733.895 204.082 734.795 204.46 735.923 204.46Z" fill="black"/>
<path d="M746.836 205.216C745.48 205.216 744.364 204.796 743.488 203.956C742.6 203.104 742.156 202.024 742.156 200.716C742.156 199.42 742.552 198.346 743.344 197.494C744.136 196.63 745.162 196.198 746.422 196.198C747.13 196.198 747.754 196.342 748.294 196.63C748.834 196.906 749.248 197.284 749.536 197.764C750.1 198.664 750.382 199.594 750.382 200.554V200.824H742.966C742.99 201.916 743.368 202.792 744.1 203.452C744.844 204.124 745.792 204.46 746.944 204.46C747.976 204.46 748.9 204.19 749.716 203.65V204.442C749.044 204.958 748.084 205.216 746.836 205.216ZM742.984 200.122H749.572C749.572 199.786 749.512 199.444 749.392 199.096C749.272 198.748 749.092 198.412 748.852 198.088C748.624 197.752 748.294 197.482 747.862 197.278C747.43 197.062 746.944 196.954 746.404 196.954C745.396 196.954 744.586 197.278 743.974 197.926C743.362 198.574 743.032 199.306 742.984 200.122Z" fill="black"/>
<path d="M756.887 205.216C755.567 205.216 754.487 204.778 753.647 203.902C752.795 203.014 752.369 201.946 752.369 200.698C752.369 199.462 752.795 198.4 753.647 197.512C754.487 196.636 755.573 196.198 756.905 196.198C757.865 196.198 758.729 196.42 759.497 196.864V197.656C758.693 197.188 757.859 196.954 756.995 196.954C755.915 196.954 755.009 197.314 754.277 198.034C753.557 198.754 753.197 199.648 753.197 200.716C753.197 201.784 753.557 202.678 754.277 203.398C755.021 204.106 755.927 204.46 756.995 204.46C758.003 204.46 758.891 204.19 759.659 203.65V204.46C758.903 204.964 757.979 205.216 756.887 205.216Z" fill="black"/>
<path d="M763.248 205H762.438V196.414H769.908V205H769.098V197.152H763.248V205Z" fill="black"/>
<path d="M777.211 205.216C775.855 205.216 774.739 204.796 773.863 203.956C772.975 203.104 772.531 202.024 772.531 200.716C772.531 199.42 772.927 198.346 773.719 197.494C774.511 196.63 775.537 196.198 776.797 196.198C777.505 196.198 778.129 196.342 778.669 196.63C779.209 196.906 779.623 197.284 779.911 197.764C780.475 198.664 780.757 199.594 780.757 200.554V200.824H773.341C773.365 201.916 773.743 202.792 774.475 203.452C775.219 204.124 776.167 204.46 777.319 204.46C778.351 204.46 779.275 204.19 780.091 203.65V204.442C779.419 204.958 778.459 205.216 777.211 205.216ZM773.359 200.122H779.947C779.947 199.786 779.887 199.444 779.767 199.096C779.647 198.748 779.467 198.412 779.227 198.088C778.999 197.752 778.669 197.482 778.237 197.278C777.805 197.062 777.319 196.954 776.779 196.954C775.771 196.954 774.961 197.278 774.349 197.926C773.737 198.574 773.407 199.306 773.359 200.122Z" fill="black"/>
<path d="M790.124 205H789.314V201.31C788.39 201.718 787.394 201.922 786.326 201.922C785.162 201.922 784.304 201.664 783.752 201.148C783.2 200.62 782.924 199.774 782.924 198.61V196.414H783.734V198.538C783.734 199.498 783.95 200.176 784.382 200.572C784.814 200.968 785.534 201.166 786.542 201.166C787.526 201.166 788.45 200.95 789.314 200.518V196.414H790.124V205Z" fill="black"/>
<path d="M797.426 205.216C796.07 205.216 794.954 204.796 794.078 203.956C793.19 203.104 792.746 202.024 792.746 200.716C792.746 199.42 793.142 198.346 793.934 197.494C794.726 196.63 795.752 196.198 797.012 196.198C797.72 196.198 798.344 196.342 798.884 196.63C799.424 196.906 799.838 197.284 800.126 197.764C800.69 198.664 800.972 199.594 800.972 200.554V200.824H793.556C793.58 201.916 793.958 202.792 794.69 203.452C795.434 204.124 796.382 204.46 797.534 204.46C798.566 204.46 799.49 204.19 800.306 203.65V204.442C799.634 204.958 798.674 205.216 797.426 205.216ZM793.574 200.122H800.162C800.162 199.786 800.102 199.444 799.982 199.096C799.862 198.748 799.682 198.412 799.442 198.088C799.214 197.752 798.884 197.482 798.452 197.278C798.02 197.062 797.534 196.954 796.994 196.954C795.986 196.954 795.176 197.278 794.564 197.926C793.952 198.574 793.622 199.306 793.574 200.122Z" fill="black"/>
<path d="M804.399 205H803.589V196.414H804.399V200.212H810.393V196.414H811.203V205H810.393V200.95H804.399V205Z" fill="black"/>
<path d="M815.208 205H814.452V196.414H815.262V203.776L821.418 196.414H822.156V205H821.346V197.656L815.208 205Z" fill="black"/>
<path d="M825.727 205H824.755L827.473 201.49C826.717 201.418 826.129 201.16 825.709 200.716C825.289 200.26 825.079 199.672 825.079 198.952C825.079 198.184 825.337 197.572 825.853 197.116C826.381 196.648 827.107 196.414 828.031 196.414H832.369V205H831.559V201.598H828.337L825.727 205ZM828.139 200.86H831.559V197.152H828.139C827.431 197.152 826.879 197.314 826.483 197.638C826.099 197.962 825.907 198.418 825.907 199.006C825.907 199.582 826.099 200.038 826.483 200.374C826.879 200.698 827.431 200.86 828.139 200.86Z" fill="black"/>
<path d="M841.206 205H840.45V196.414H841.26V203.776L847.416 196.414H848.154V205H847.344V197.656L841.206 205Z" fill="black"/>
<path d="M860.591 196.198C861.875 196.198 862.925 196.642 863.741 197.53C864.557 198.418 864.965 199.474 864.965 200.698C864.965 201.934 864.557 202.996 863.741 203.884C862.925 204.772 861.875 205.216 860.591 205.216C859.067 205.216 857.885 204.634 857.045 203.47V208.6H856.235V196.414H857.045V197.926C857.897 196.774 859.079 196.198 860.591 196.198ZM860.447 196.954C859.703 196.954 859.019 197.152 858.395 197.548C857.771 197.944 857.321 198.454 857.045 199.078V202.318C857.333 202.942 857.789 203.458 858.413 203.866C859.049 204.262 859.727 204.46 860.447 204.46C861.503 204.46 862.379 204.1 863.075 203.38C863.783 202.648 864.137 201.754 864.137 200.698C864.137 199.63 863.783 198.742 863.075 198.034C862.379 197.314 861.503 196.954 860.447 196.954Z" fill="black"/>
<path d="M870.381 204.46C871.065 204.46 871.707 204.298 872.307 203.974C872.907 203.65 873.393 203.242 873.765 202.75V201.328C872.733 200.656 871.683 200.32 870.615 200.32C869.715 200.32 869.001 200.512 868.473 200.896C867.945 201.268 867.681 201.766 867.681 202.39C867.681 203.062 867.933 203.578 868.437 203.938C868.941 204.286 869.589 204.46 870.381 204.46ZM870.147 205.216C869.259 205.216 868.479 204.97 867.807 204.478C867.159 203.974 866.835 203.284 866.835 202.408C866.835 201.556 867.171 200.878 867.843 200.374C868.515 199.858 869.367 199.6 870.399 199.6C871.623 199.6 872.745 199.912 873.765 200.536V199.402C873.765 197.77 872.745 196.954 870.705 196.954C869.673 196.954 868.701 197.26 867.789 197.872V197.044C868.665 196.48 869.685 196.198 870.849 196.198C872.001 196.198 872.907 196.468 873.567 197.008C874.239 197.536 874.575 198.31 874.575 199.33V203.146C874.575 203.518 874.659 203.818 874.827 204.046C874.995 204.262 875.223 204.37 875.511 204.37C875.703 204.37 875.871 204.334 876.015 204.262V204.928C875.847 205.024 875.613 205.072 875.313 205.072C874.905 205.072 874.563 204.946 874.287 204.694C874.023 204.43 873.873 204.058 873.837 203.578C872.901 204.67 871.671 205.216 870.147 205.216Z" fill="black"/>
<path d="M880.801 205.216C879.601 205.216 878.569 205.012 877.705 204.604V203.794C878.605 204.238 879.607 204.46 880.711 204.46C881.659 204.46 882.421 204.292 882.997 203.956C883.573 203.608 883.861 203.146 883.861 202.57C883.861 202.03 883.615 201.604 883.123 201.292C882.643 200.968 882.001 200.806 881.197 200.806H879.757V200.068H881.197C881.941 200.068 882.511 199.924 882.907 199.636C883.315 199.348 883.519 198.988 883.519 198.556C883.519 198.04 883.279 197.644 882.799 197.368C882.331 197.092 881.677 196.954 880.837 196.954C879.865 196.954 878.911 197.146 877.975 197.53V196.738C878.851 196.378 879.847 196.198 880.963 196.198C881.947 196.198 882.751 196.402 883.375 196.81C884.011 197.218 884.329 197.758 884.329 198.43C884.329 199.354 883.795 200.008 882.727 200.392C884.035 200.752 884.689 201.496 884.689 202.624C884.689 203.404 884.335 204.034 883.627 204.514C882.931 204.982 881.989 205.216 880.801 205.216Z" fill="black"/>
<path d="M892.188 205H887.454V196.414H891.828C892.62 196.414 893.238 196.612 893.682 197.008C894.126 197.392 894.348 197.914 894.348 198.574C894.348 199.534 893.976 200.17 893.232 200.482C894.36 200.806 894.924 201.55 894.924 202.714C894.924 203.41 894.678 203.968 894.186 204.388C893.706 204.796 893.04 205 892.188 205ZM888.264 200.95V204.262H892.026C892.686 204.262 893.196 204.118 893.556 203.83C893.916 203.542 894.096 203.134 894.096 202.606C894.096 202.078 893.916 201.67 893.556 201.382C893.196 201.094 892.686 200.95 892.026 200.95H888.264ZM888.264 197.152V200.212H891.612C892.224 200.212 892.692 200.08 893.016 199.816C893.352 199.552 893.52 199.174 893.52 198.682C893.52 198.19 893.352 197.812 893.016 197.548C892.692 197.284 892.224 197.152 891.612 197.152H888.264Z" fill="black"/>
<path d="M898.493 205H897.737V196.414H898.547V203.776L904.703 196.414H905.441V205H904.631V197.656L898.493 205Z" fill="black"/>
<path d="M911.694 205H910.884V197.152H907.608V196.414H914.97V197.152H911.694V205Z" fill="black"/>
<path d="M917.864 205H917.108V196.414H917.918V203.776L924.074 196.414H924.812V205H924.002V197.656L917.864 205Z" fill="black"/>
<path d="M928.383 205H927.411L930.129 201.49C929.373 201.418 928.785 201.16 928.365 200.716C927.945 200.26 927.735 199.672 927.735 198.952C927.735 198.184 927.993 197.572 928.509 197.116C929.037 196.648 929.763 196.414 930.687 196.414H935.025V205H934.215V201.598H930.993L928.383 205ZM930.795 200.86H934.215V197.152H930.795C930.087 197.152 929.535 197.314 929.139 197.638C928.755 197.962 928.563 198.418 928.563 199.006C928.563 199.582 928.755 200.038 929.139 200.374C929.535 200.698 930.087 200.86 930.795 200.86Z" fill="black"/>
<path d="M945.374 205H944.564V197.152H941.288V196.414H948.65V197.152H945.374V205Z" fill="black"/>
<path d="M955.144 196.198C956.428 196.198 957.478 196.642 958.294 197.53C959.11 198.418 959.518 199.474 959.518 200.698C959.518 201.934 959.11 202.996 958.294 203.884C957.478 204.772 956.428 205.216 955.144 205.216C953.62 205.216 952.438 204.634 951.598 203.47V208.6H950.788V196.414H951.598V197.926C952.45 196.774 953.632 196.198 955.144 196.198ZM955 196.954C954.256 196.954 953.572 197.152 952.948 197.548C952.324 197.944 951.874 198.454 951.598 199.078V202.318C951.886 202.942 952.342 203.458 952.966 203.866C953.602 204.262 954.28 204.46 955 204.46C956.056 204.46 956.932 204.1 957.628 203.38C958.336 202.648 958.69 201.754 958.69 200.698C958.69 199.63 958.336 198.742 957.628 198.034C956.932 197.314 956.056 196.954 955 196.954Z" fill="black"/>
<path d="M964.934 204.46C965.618 204.46 966.26 204.298 966.86 203.974C967.46 203.65 967.946 203.242 968.318 202.75V201.328C967.286 200.656 966.236 200.32 965.168 200.32C964.268 200.32 963.554 200.512 963.026 200.896C962.498 201.268 962.234 201.766 962.234 202.39C962.234 203.062 962.486 203.578 962.99 203.938C963.494 204.286 964.142 204.46 964.934 204.46ZM964.7 205.216C963.812 205.216 963.032 204.97 962.36 204.478C961.712 203.974 961.388 203.284 961.388 202.408C961.388 201.556 961.724 200.878 962.396 200.374C963.068 199.858 963.92 199.6 964.952 199.6C966.176 199.6 967.298 199.912 968.318 200.536V199.402C968.318 197.77 967.298 196.954 965.258 196.954C964.226 196.954 963.254 197.26 962.342 197.872V197.044C963.218 196.48 964.238 196.198 965.402 196.198C966.554 196.198 967.46 196.468 968.12 197.008C968.792 197.536 969.128 198.31 969.128 199.33V203.146C969.128 203.518 969.212 203.818 969.38 204.046C969.548 204.262 969.776 204.37 970.064 204.37C970.256 204.37 970.424 204.334 970.568 204.262V204.928C970.4 205.024 970.166 205.072 969.866 205.072C969.458 205.072 969.116 204.946 968.84 204.694C968.576 204.43 968.426 204.058 968.39 203.578C967.454 204.67 966.224 205.216 964.7 205.216Z" fill="black"/>
<path d="M973.535 205H972.725V196.414H973.535V200.212H979.529V196.414H980.339V205H979.529V200.95H973.535V205Z" fill="black"/>
<path d="M987.477 205.216C986.157 205.216 985.077 204.778 984.237 203.902C983.385 203.014 982.959 201.946 982.959 200.698C982.959 199.462 983.385 198.4 984.237 197.512C985.077 196.636 986.163 196.198 987.495 196.198C988.455 196.198 989.319 196.42 990.087 196.864V197.656C989.283 197.188 988.449 196.954 987.585 196.954C986.505 196.954 985.599 197.314 984.867 198.034C984.147 198.754 983.787 199.648 983.787 200.716C983.787 201.784 984.147 202.678 984.867 203.398C985.611 204.106 986.517 204.46 987.585 204.46C988.593 204.46 989.481 204.19 990.249 203.65V204.46C989.493 204.964 988.569 205.216 987.477 205.216Z" fill="black"/>
<path d="M993.838 205H993.028V196.414H1000.5V205H999.688V197.152H993.838V205Z" fill="black"/>
<path d="M1005.01 203.398C1005.74 204.106 1006.63 204.46 1007.67 204.46C1008.73 204.46 1009.61 204.106 1010.32 203.398C1011.04 202.678 1011.4 201.784 1011.4 200.716C1011.4 199.648 1011.04 198.754 1010.32 198.034C1009.61 197.314 1008.73 196.954 1007.67 196.954C1006.62 196.954 1005.73 197.314 1005.01 198.034C1004.3 198.766 1003.95 199.66 1003.95 200.716C1003.95 201.772 1004.3 202.666 1005.01 203.398ZM1010.95 203.902C1010.11 204.778 1009.02 205.216 1007.67 205.216C1006.32 205.216 1005.22 204.778 1004.38 203.902C1003.54 203.026 1003.12 201.964 1003.12 200.716C1003.12 199.468 1003.54 198.406 1004.38 197.53C1005.23 196.642 1006.33 196.198 1007.67 196.198C1009.01 196.198 1010.1 196.642 1010.95 197.53C1011.8 198.418 1012.23 199.48 1012.23 200.716C1012.23 201.952 1011.8 203.014 1010.95 203.902Z" fill="black"/>
<path d="M1019.2 196.198C1020.48 196.198 1021.53 196.642 1022.35 197.53C1023.16 198.418 1023.57 199.474 1023.57 200.698C1023.57 201.934 1023.16 202.996 1022.35 203.884C1021.53 204.772 1020.48 205.216 1019.2 205.216C1017.67 205.216 1016.49 204.634 1015.65 203.47V208.6H1014.84V196.414H1015.65V197.926C1016.5 196.774 1017.69 196.198 1019.2 196.198ZM1019.05 196.954C1018.31 196.954 1017.63 197.152 1017 197.548C1016.38 197.944 1015.93 198.454 1015.65 199.078V202.318C1015.94 202.942 1016.4 203.458 1017.02 203.866C1017.66 204.262 1018.33 204.46 1019.05 204.46C1020.11 204.46 1020.99 204.1 1021.68 203.38C1022.39 202.648 1022.74 201.754 1022.74 200.698C1022.74 199.63 1022.39 198.742 1021.68 198.034C1020.99 197.314 1020.11 196.954 1019.05 196.954Z" fill="black"/>
<path d="M1028.85 205H1028.04V197.152H1024.77V196.414H1032.13V197.152H1028.85V205Z" fill="black"/>
<path d="M1035.08 205H1034.27V196.414H1035.08V200.212H1041.07V196.414H1041.88V205H1041.07V200.95H1035.08V205Z" fill="black"/>
<path d="M1046.39 203.398C1047.12 204.106 1048.01 204.46 1049.05 204.46C1050.11 204.46 1050.99 204.106 1051.7 203.398C1052.42 202.678 1052.78 201.784 1052.78 200.716C1052.78 199.648 1052.42 198.754 1051.7 198.034C1050.99 197.314 1050.11 196.954 1049.05 196.954C1048 196.954 1047.11 197.314 1046.39 198.034C1045.68 198.766 1045.33 199.66 1045.33 200.716C1045.33 201.772 1045.68 202.666 1046.39 203.398ZM1052.33 203.902C1051.49 204.778 1050.4 205.216 1049.05 205.216C1047.7 205.216 1046.6 204.778 1045.76 203.902C1044.92 203.026 1044.5 201.964 1044.5 200.716C1044.5 199.468 1044.92 198.406 1045.76 197.53C1046.61 196.642 1047.71 196.198 1049.05 196.198C1050.39 196.198 1051.48 196.642 1052.33 197.53C1053.18 198.418 1053.61 199.48 1053.61 200.716C1053.61 201.952 1053.18 203.014 1052.33 203.902Z" fill="black"/>
<path d="M1056.98 205H1056.22V196.414H1057.03V203.776L1063.19 196.414H1063.93V205H1063.12V197.656L1056.98 205ZM1060.06 194.956C1059.22 194.956 1058.54 194.722 1058.02 194.254C1057.52 193.774 1057.27 193.156 1057.27 192.4H1058C1058 192.952 1058.19 193.402 1058.56 193.75C1058.95 194.098 1059.44 194.272 1060.06 194.272C1060.66 194.272 1061.14 194.098 1061.51 193.75C1061.89 193.39 1062.07 192.94 1062.07 192.4H1062.81C1062.81 193.132 1062.55 193.744 1062.02 194.236C1061.5 194.716 1060.85 194.956 1060.06 194.956Z" fill="black"/>
<path d="M1075.89 205.216C1074.57 205.216 1073.49 204.778 1072.65 203.902C1071.8 203.014 1071.38 201.946 1071.38 200.698C1071.38 199.462 1071.8 198.4 1072.65 197.512C1073.49 196.636 1074.58 196.198 1075.91 196.198C1076.87 196.198 1077.74 196.42 1078.5 196.864V197.656C1077.7 197.188 1076.87 196.954 1076 196.954C1074.92 196.954 1074.02 197.314 1073.28 198.034C1072.56 198.754 1072.2 199.648 1072.2 200.716C1072.2 201.784 1072.56 202.678 1073.28 203.398C1074.03 204.106 1074.93 204.46 1076 204.46C1077.01 204.46 1077.9 204.19 1078.67 203.65V204.46C1077.91 204.964 1076.99 205.216 1075.89 205.216Z" fill="black"/>
<path d="M1086.47 208.528H1085.66V205.162C1084.11 205.138 1082.89 204.73 1081.99 203.938C1081.09 203.134 1080.64 202.06 1080.64 200.716C1080.64 199.36 1081.09 198.286 1081.99 197.494C1082.89 196.69 1084.11 196.276 1085.66 196.252V192.4H1086.47V196.252C1088.02 196.276 1089.24 196.69 1090.14 197.494C1091.06 198.286 1091.51 199.36 1091.51 200.716C1091.51 202.06 1091.06 203.134 1090.14 203.938C1089.24 204.73 1088.02 205.138 1086.47 205.162V208.528ZM1086.47 196.99V204.424C1087.68 204.424 1088.69 204.106 1089.5 203.47C1090.3 202.846 1090.7 201.928 1090.7 200.716C1090.7 199.504 1090.3 198.586 1089.5 197.962C1088.7 197.314 1087.7 196.99 1086.47 196.99ZM1085.66 204.424V196.99C1084.46 196.99 1083.45 197.314 1082.64 197.962C1081.83 198.586 1081.43 199.504 1081.43 200.716C1081.43 201.928 1081.83 202.846 1082.64 203.47C1083.45 204.106 1084.46 204.424 1085.66 204.424Z" fill="black"/>
<path d="M1098.17 205.216C1096.81 205.216 1095.7 204.796 1094.82 203.956C1093.93 203.104 1093.49 202.024 1093.49 200.716C1093.49 199.42 1093.89 198.346 1094.68 197.494C1095.47 196.63 1096.5 196.198 1097.76 196.198C1098.46 196.198 1099.09 196.342 1099.63 196.63C1100.17 196.906 1100.58 197.284 1100.87 197.764C1101.43 198.664 1101.72 199.594 1101.72 200.554V200.824H1094.3C1094.32 201.916 1094.7 202.792 1095.43 203.452C1096.18 204.124 1097.13 204.46 1098.28 204.46C1099.31 204.46 1100.23 204.19 1101.05 203.65V204.442C1100.38 204.958 1099.42 205.216 1098.17 205.216ZM1094.32 200.122H1100.91C1100.91 199.786 1100.85 199.444 1100.73 199.096C1100.61 198.748 1100.43 198.412 1100.19 198.088C1099.96 197.752 1099.63 197.482 1099.2 197.278C1098.76 197.062 1098.28 196.954 1097.74 196.954C1096.73 196.954 1095.92 197.278 1095.31 197.926C1094.7 198.574 1094.37 199.306 1094.32 200.122Z" fill="black"/>
<path d="M1108.69 196.198C1109.97 196.198 1111.02 196.642 1111.84 197.53C1112.65 198.418 1113.06 199.474 1113.06 200.698C1113.06 201.934 1112.65 202.996 1111.84 203.884C1111.02 204.772 1109.97 205.216 1108.69 205.216C1107.16 205.216 1105.98 204.634 1105.14 203.47V208.6H1104.33V196.414H1105.14V197.926C1105.99 196.774 1107.18 196.198 1108.69 196.198ZM1108.54 196.954C1107.8 196.954 1107.12 197.152 1106.49 197.548C1105.87 197.944 1105.42 198.454 1105.14 199.078V202.318C1105.43 202.942 1105.89 203.458 1106.51 203.866C1107.15 204.262 1107.82 204.46 1108.54 204.46C1109.6 204.46 1110.48 204.1 1111.17 203.38C1111.88 202.648 1112.23 201.754 1112.23 200.698C1112.23 199.63 1111.88 198.742 1111.17 198.034C1110.48 197.314 1109.6 196.954 1108.54 196.954Z" fill="black"/>
<path d="M1124.92 205H1124.11V196.414H1124.92V205ZM1119.4 205H1115.67V196.414H1116.48V199.528H1119.38C1120.35 199.528 1121.11 199.774 1121.66 200.266C1122.23 200.758 1122.51 201.418 1122.51 202.246C1122.51 203.086 1122.23 203.758 1121.68 204.262C1121.14 204.754 1120.38 205 1119.4 205ZM1116.48 200.266V204.262H1119.25C1120.02 204.262 1120.61 204.088 1121.03 203.74C1121.47 203.392 1121.68 202.9 1121.68 202.264C1121.68 201.628 1121.47 201.136 1121.03 200.788C1120.61 200.44 1120.02 200.266 1119.25 200.266H1116.48Z" fill="black"/>
</svg>
