<svg width="80" height="80" viewBox="0 0 80 80" fill="none" xmlns="http://www.w3.org/2000/svg">
<path d="M48.2864 31.7135L36.6853 43.3145L31.7134 38.3427C30.7983 37.4274 29.3142 37.4274 28.3989 38.3427C27.4836 39.2581 27.4836 40.742 28.3989 41.6573L35.0279 48.2863C35.4856 48.744 36.0854 48.9729 36.6851 48.9729C37.2848 48.9729 37.8848 48.7442 38.3423 48.2863L51.6006 35.0281C52.5159 34.1129 52.5159 32.6288 51.6006 31.7135C50.6856 30.7984 49.2015 30.7982 48.2864 31.7135Z" fill="#F32735"/>
<path d="M40 15.7812C26.6458 15.7812 15.7812 26.6458 15.7812 40C15.7812 53.3542 26.6458 64.2188 40 64.2188C53.3542 64.2188 64.2188 53.3542 64.2188 40C64.2188 26.6458 53.3542 15.7812 40 15.7812ZM40 59.5312C29.2305 59.5312 20.4688 50.7695 20.4688 40C20.4688 29.2305 29.2305 20.4688 40 20.4688C50.7695 20.4688 59.5312 29.2305 59.5312 40C59.5312 50.7695 50.7695 59.5312 40 59.5312Z" fill="#F32735"/>
<path d="M77.6562 31.4062H74.0961C73.2619 28.0763 71.952 24.9147 70.1858 21.9677L72.7038 19.4498C73.1433 19.0103 73.3903 18.4142 73.3903 17.7925C73.3903 17.1709 73.1433 16.5748 72.7038 16.1353L63.8648 7.29641C63.4253 6.85687 62.8292 6.60984 62.2077 6.60984C61.5859 6.60984 60.9898 6.85687 60.5503 7.29641L58.0325 9.81437C55.0856 8.04797 51.9236 6.73812 48.5938 5.90391V2.34375C48.5938 1.04937 47.5444 0 46.25 0H33.75C32.4556 0 31.4062 1.04937 31.4062 2.34375V5.90391C28.0764 6.73797 24.9144 8.04797 21.9677 9.81422L19.4498 7.29625C19.0103 6.85672 18.4142 6.60969 17.7925 6.60969C17.1708 6.60969 16.5748 6.85672 16.1353 7.29625L7.29656 16.1352C6.38125 17.0505 6.38125 18.5344 7.29656 19.4497L9.81437 21.9677C8.04797 24.9145 6.73812 28.0761 5.90391 31.4062H2.34375C1.04937 31.4062 0 32.4556 0 33.75V46.25C0 47.5444 1.04937 48.5938 2.34375 48.5938H5.90391C6.73812 51.9239 8.04797 55.0855 9.81422 58.0323L7.29641 60.5503C6.38109 61.4656 6.38109 62.9495 7.29641 63.8648L16.1352 72.7036C17.0503 73.6189 18.5344 73.6189 19.4497 72.7036L21.9677 70.1858C24.9145 71.9519 28.0766 73.2619 31.4062 74.0959V77.6562C31.4062 78.9506 32.4556 80 33.75 80H46.25C47.5444 80 48.5938 78.9506 48.5938 77.6562V74.0959C51.9234 73.2619 55.0855 71.9519 58.0323 70.1858L60.5503 72.7036C61.4655 73.6189 62.9495 73.6189 63.8648 72.7036L72.7038 63.8648C73.1433 63.4253 73.3903 62.8292 73.3903 62.2077C73.3903 61.5861 73.1433 60.99 72.7038 60.5503L70.1858 58.0325C71.952 55.0855 73.2619 51.9239 74.0959 48.5939H77.6562C78.9506 48.5939 80 47.5445 80 46.2502V33.7502C80 32.4556 78.9506 31.4062 77.6562 31.4062ZM75.3125 43.9062H72.2155C71.0922 43.9062 70.1269 44.7031 69.9141 45.8061C69.1341 49.8494 67.5673 53.6314 65.2573 57.0469C64.6281 57.9772 64.7473 59.2231 65.5414 60.0172L67.7317 62.2075L62.2075 67.7317L60.0172 65.5414C59.2231 64.7472 57.977 64.6281 57.0469 65.2573C53.6313 67.5673 49.8494 69.1341 45.8061 69.9139C44.7031 70.1266 43.9062 71.092 43.9062 72.2153V75.3125H36.0938V72.2153C36.0938 71.092 35.2967 70.1267 34.1939 69.9139C30.1506 69.1341 26.3686 67.5673 22.9531 65.2573C22.023 64.6281 20.777 64.7473 19.9828 65.5414L17.7925 67.7317L12.2683 62.2075L14.4586 60.0172C15.2528 59.223 15.3719 57.9772 14.7427 57.0469C12.4327 53.6316 10.8659 49.8497 10.0859 45.8061C9.87313 44.7031 8.90781 43.9062 7.78453 43.9062H4.6875V36.0938H7.78453C8.90781 36.0938 9.87313 35.2969 10.0859 34.1939C10.8659 30.1505 12.4327 26.3684 14.7427 22.9531C15.3719 22.0228 15.2528 20.7769 14.4586 19.9828L12.2683 17.7925L17.7925 12.2683L19.9828 14.4586C20.777 15.2528 22.0228 15.3719 22.9533 14.7427C26.3687 12.4325 30.1506 10.8658 34.1941 10.0859C35.2967 9.87313 36.0938 8.90781 36.0938 7.78453V4.6875H43.9062V7.78453C43.9062 8.90781 44.7033 9.87313 45.8061 10.0859C49.8494 10.8658 53.6314 12.4325 57.0469 14.7427C57.9773 15.372 59.2231 15.2528 60.0173 14.4586L62.2077 12.2683L67.7319 17.7925L65.5416 19.9828C64.7473 20.777 64.6283 22.023 65.2575 22.9531C67.5675 26.3686 69.1342 30.1506 69.9142 34.1939C70.1269 35.2969 71.0922 36.0938 72.2155 36.0938H75.3125V43.9062Z" fill="#F32735"/>
</svg>
