<svg width="80" height="80" viewBox="0 0 80 80" fill="none" xmlns="http://www.w3.org/2000/svg">
<path d="M77.6562 16.5625H70.4688V14.2188C70.4688 12.9244 69.4194 11.875 68.125 11.875H49.375C45.8142 11.875 42.6216 13.4734 40.4706 15.988C37.7241 10.7611 32.2406 7.1875 25.9375 7.1875H21.25C19.9556 7.1875 18.9062 8.23687 18.9062 9.53125V11.875H11.875C10.5806 11.875 9.53125 12.9244 9.53125 14.2188V16.5625H2.34375C1.04937 16.5625 0 17.6119 0 18.9062V70.4688C0 71.7631 1.04937 72.8125 2.34375 72.8125H77.6562C78.9506 72.8125 80 71.7631 80 70.4688V18.9062C80 17.6119 78.9506 16.5625 77.6562 16.5625ZM49.375 16.5625H65.7812V58.75H49.375C46.8108 58.75 44.3464 59.6148 42.3438 61.1347V23.5938C42.3438 19.7167 45.498 16.5625 49.375 16.5625ZM23.5938 11.875H25.9375C32.3992 11.875 37.6562 17.132 37.6562 23.5938V54.3102C34.6763 51.2664 30.5238 49.375 25.9375 49.375H23.5938V11.875ZM14.2188 16.5625H18.9062V51.7188C18.9062 53.0131 19.9556 54.0625 21.25 54.0625H25.9375C30.387 54.0625 34.265 56.5555 36.2489 60.2178C34.5473 59.2727 32.6166 58.75 30.625 58.75H14.2188V16.5625ZM4.6875 68.125V21.25H9.53125V61.0938C9.53125 62.3881 10.5806 63.4375 11.875 63.4375H30.625C33.1289 63.4375 35.3903 64.7544 36.6739 66.9602C37.0936 67.6814 37.8652 68.125 38.6995 68.125H4.6875ZM75.3125 68.125H41.3003C42.1347 68.125 42.9062 67.6814 43.3259 66.9602C44.6097 64.7544 46.8711 63.4375 49.375 63.4375H68.125C69.4194 63.4375 70.4688 62.3881 70.4688 61.0938V21.25H75.3125V68.125Z" fill="#F32735"/>
</svg>
