<svg width="1328" height="280" viewBox="0 0 1328 280" fill="none" xmlns="http://www.w3.org/2000/svg">
<path d="M1468 140C1468 217.32 1405.32 280 1328 280C1250.68 280 1188 217.32 1188 140C1188 62.6801 1250.68 0 1328 0C1405.32 0 1468 62.6801 1468 140Z" fill="#F32735"/>
<path d="M422.515 106H404.515V51.8H383.515V36H443.615V51.8H422.515V106Z" fill="#343434"/>
<path d="M471.137 106H453.137V36H484.337C492.204 36 498.404 38.0333 502.937 42.1C507.537 46.1667 509.837 51.4333 509.837 57.9C509.837 64.3667 507.537 69.6667 502.937 73.8C498.404 77.8667 492.204 79.9 484.337 79.9H471.137V106ZM471.137 51.2V65.1H483.037C485.637 65.1 487.704 64.5 489.237 63.3C490.837 62.0333 491.637 60.3 491.637 58.1C491.637 55.9 490.871 54.2 489.337 53C487.804 51.8 485.704 51.2 483.037 51.2H471.137Z" fill="#343434"/>
<path d="M524.152 106H505.152L534.552 35.6H551.852L581.252 106H561.952L556.052 91.2H530.052L524.152 106ZM543.052 58.1L535.752 76.8H550.352L543.052 58.1Z" fill="#343434"/>
<path d="M606.977 106H588.977V36H606.977V60.9H633.377V36H651.377V106H633.377V76.9H606.977V106Z" fill="#343434"/>
<path d="M701.558 107.4C690.358 107.4 681.058 104 673.658 97.2C666.258 90.4 662.558 81.6667 662.558 71C662.558 60.3333 666.225 51.6 673.558 44.8C680.958 38 690.258 34.6 701.458 34.6C708.125 34.6 714.158 35.9333 719.558 38.6V56.3C714.092 52.9 708.125 51.2 701.658 51.2C695.792 51.2 690.892 53.0667 686.958 56.8C683.025 60.5333 681.058 65.2667 681.058 71C681.058 76.8667 683.058 81.6333 687.058 85.3C691.125 88.9667 696.225 90.8 702.358 90.8C709.692 90.8 715.825 88.9333 720.758 85.2V103C715.025 105.933 708.625 107.4 701.558 107.4Z" fill="#343434"/>
<path d="M749.946 106H731.946V36H792.546V106H774.546V51.8H749.946V106Z" fill="#343434"/>
<path d="M827.469 85.2C831.003 88.9333 835.403 90.8 840.669 90.8C845.869 90.8 850.236 88.9333 853.769 85.2C857.303 81.4667 859.069 76.7333 859.069 71C859.069 65.2667 857.303 60.5333 853.769 56.8C850.236 53.0667 845.869 51.2 840.669 51.2C835.403 51.2 831.003 53.0667 827.469 56.8C824.003 60.4667 822.269 65.2 822.269 71C822.269 76.8 824.003 81.5333 827.469 85.2ZM867.069 96.8C860.069 103.867 851.269 107.4 840.669 107.4C830.069 107.4 821.269 103.867 814.269 96.8C807.269 89.7333 803.769 81.1333 803.769 71C803.769 60.8667 807.269 52.2667 814.269 45.2C821.269 38.1333 830.069 34.6 840.669 34.6C851.269 34.6 860.069 38.1333 867.069 45.2C874.069 52.2667 877.569 60.8667 877.569 71C877.569 81.1333 874.069 89.7333 867.069 96.8Z" fill="#343434"/>
<path d="M906.782 106H888.782V36H919.982C927.848 36 934.048 38.0333 938.582 42.1C943.182 46.1667 945.482 51.4333 945.482 57.9C945.482 64.3667 943.182 69.6667 938.582 73.8C934.048 77.8667 927.848 79.9 919.982 79.9H906.782V106ZM906.782 51.2V65.1H918.682C921.282 65.1 923.349 64.5 924.882 63.3C926.482 62.0333 927.282 60.3 927.282 58.1C927.282 55.9 926.515 54.2 924.982 53C923.448 51.8 921.349 51.2 918.682 51.2H906.782Z" fill="#343434"/>
<path d="M989.604 106H971.604V51.8H950.604V36H1010.7V51.8H989.604V106Z" fill="#343434"/>
<path d="M1038.23 106H1020.23V36H1038.23V60.9H1064.63V36H1082.63V106H1064.63V76.9H1038.23V106Z" fill="#343434"/>
<path d="M1117.51 85.2C1121.04 88.9333 1125.44 90.8 1130.71 90.8C1135.91 90.8 1140.28 88.9333 1143.81 85.2C1147.34 81.4667 1149.11 76.7333 1149.11 71C1149.11 65.2667 1147.34 60.5333 1143.81 56.8C1140.28 53.0667 1135.91 51.2 1130.71 51.2C1125.44 51.2 1121.04 53.0667 1117.51 56.8C1114.04 60.4667 1112.31 65.2 1112.31 71C1112.31 76.8 1114.04 81.5333 1117.51 85.2ZM1157.11 96.8C1150.11 103.867 1141.31 107.4 1130.71 107.4C1120.11 107.4 1111.31 103.867 1104.31 96.8C1097.31 89.7333 1093.81 81.1333 1093.81 71C1093.81 60.8667 1097.31 52.2667 1104.31 45.2C1111.31 38.1333 1120.11 34.6 1130.71 34.6C1141.31 34.6 1150.11 38.1333 1157.11 45.2C1164.11 52.2667 1167.61 60.8667 1167.61 71C1167.61 81.1333 1164.11 89.7333 1157.11 96.8Z" fill="#343434"/>
<path d="M1193.92 106H1178.82V36H1196.82V75.5L1225.72 36H1241.32V106H1223.32V66.1L1193.92 106ZM1191.12 14.8H1203.22C1203.29 16.7333 1203.89 18.2667 1205.02 19.4C1206.22 20.5333 1207.85 21.1 1209.92 21.1C1211.99 21.1 1213.59 20.5333 1214.72 19.4C1215.92 18.2667 1216.55 16.7333 1216.62 14.8H1228.92C1228.79 20.3333 1226.95 24.6333 1223.42 27.7C1219.89 30.8333 1215.42 32.4 1210.02 32.4C1204.69 32.4 1200.19 30.8333 1196.52 27.7C1193.05 24.5667 1191.25 20.2667 1191.12 14.8Z" fill="#343434"/>
<path d="M785.184 211.2C788.717 214.933 793.117 216.8 798.384 216.8C803.584 216.8 807.951 214.933 811.484 211.2C815.017 207.467 816.784 202.733 816.784 197C816.784 191.267 815.017 186.533 811.484 182.8C807.951 179.067 803.584 177.2 798.384 177.2C793.117 177.2 788.717 179.067 785.184 182.8C781.717 186.467 779.984 191.2 779.984 197C779.984 202.8 781.717 207.533 785.184 211.2ZM824.784 222.8C817.784 229.867 808.984 233.4 798.384 233.4C787.784 233.4 778.984 229.867 771.984 222.8C764.984 215.733 761.484 207.133 761.484 197C761.484 186.867 764.984 178.267 771.984 171.2C778.984 164.133 787.784 160.6 798.384 160.6C808.984 160.6 817.784 164.133 824.784 171.2C831.784 178.267 835.284 186.867 835.284 197C835.284 207.133 831.784 215.733 824.784 222.8Z" fill="#343434"/>
<path d="M876.616 232H858.616V177.8H837.616V162H897.716V177.8H876.616V232Z" fill="#343434"/>
<path d="M925.239 232H907.239V162H938.439C946.305 162 952.505 164.033 957.039 168.1C961.639 172.167 963.939 177.433 963.939 183.9C963.939 190.367 961.639 195.667 957.039 199.8C952.505 203.867 946.305 205.9 938.439 205.9H925.239V232ZM925.239 177.2V191.1H937.139C939.739 191.1 941.806 190.5 943.339 189.3C944.939 188.033 945.739 186.3 945.739 184.1C945.739 181.9 944.972 180.2 943.439 179C941.906 177.8 939.806 177.2 937.139 177.2H925.239Z" fill="#343434"/>
<path d="M978.254 232H959.254L988.654 161.6H1005.95L1035.35 232H1016.05L1010.15 217.2H984.154L978.254 232ZM997.154 184.1L989.854 202.8H1004.45L997.154 184.1Z" fill="#343434"/>
<path d="M1074.9 233.4C1063.7 233.4 1054.4 230 1047 223.2C1039.6 216.4 1035.9 207.667 1035.9 197C1035.9 186.333 1039.56 177.6 1046.9 170.8C1054.3 164 1063.6 160.6 1074.8 160.6C1081.46 160.6 1087.5 161.933 1092.9 164.6V182.3C1087.43 178.9 1081.46 177.2 1075 177.2C1069.13 177.2 1064.23 179.067 1060.3 182.8C1056.36 186.533 1054.4 191.267 1054.4 197C1054.4 202.867 1056.4 207.633 1060.4 211.3C1064.46 214.967 1069.56 216.8 1075.7 216.8C1083.03 216.8 1089.16 214.933 1094.1 211.2V229C1088.36 231.933 1081.96 233.4 1074.9 233.4Z" fill="#343434"/>
<path d="M1106.79 232.6C1103.39 232.6 1100.82 232.133 1099.09 231.2V214.7C1100.89 215.567 1102.65 216 1104.39 216C1107.85 216 1110.09 213.867 1111.09 209.6C1112.22 205.267 1112.82 196.433 1112.89 183.1L1113.09 162H1165.39V232H1147.39V177.8H1130.59L1130.39 185.5C1129.85 204.233 1128.05 216.433 1124.99 222.1C1121.19 229.1 1115.12 232.6 1106.79 232.6Z" fill="#343434"/>
<path d="M1193.92 232H1178.82V162H1196.82V201.5L1225.72 162H1241.32V232H1223.32V192.1L1193.92 232Z" fill="#343434"/>
<path d="M34.9359 196H34.1259V188.152H30.8499V187.414H38.2119V188.152H34.9359V196Z" fill="black"/>
<path d="M44.7062 187.198C45.9902 187.198 47.0402 187.642 47.8562 188.53C48.6722 189.418 49.0802 190.474 49.0802 191.698C49.0802 192.934 48.6722 193.996 47.8562 194.884C47.0402 195.772 45.9902 196.216 44.7062 196.216C43.1822 196.216 42.0002 195.634 41.1602 194.47V199.6H40.3502V187.414H41.1602V188.926C42.0122 187.774 43.1942 187.198 44.7062 187.198ZM44.5622 187.954C43.8182 187.954 43.1342 188.152 42.5102 188.548C41.8862 188.944 41.4362 189.454 41.1602 190.078V193.318C41.4482 193.942 41.9042 194.458 42.5282 194.866C43.1642 195.262 43.8422 195.46 44.5622 195.46C45.6182 195.46 46.4942 195.1 47.1902 194.38C47.8982 193.648 48.2522 192.754 48.2522 191.698C48.2522 190.63 47.8982 189.742 47.1902 189.034C46.4942 188.314 45.6182 187.954 44.5622 187.954Z" fill="black"/>
<path d="M54.4961 195.46C55.1801 195.46 55.8221 195.298 56.4221 194.974C57.0221 194.65 57.5081 194.242 57.8801 193.75V192.328C56.8481 191.656 55.7981 191.32 54.7301 191.32C53.8301 191.32 53.1161 191.512 52.5881 191.896C52.0601 192.268 51.7961 192.766 51.7961 193.39C51.7961 194.062 52.0481 194.578 52.5521 194.938C53.0561 195.286 53.7041 195.46 54.4961 195.46ZM54.2621 196.216C53.3741 196.216 52.5941 195.97 51.9221 195.478C51.2741 194.974 50.9501 194.284 50.9501 193.408C50.9501 192.556 51.2861 191.878 51.9581 191.374C52.6301 190.858 53.4821 190.6 54.5141 190.6C55.7381 190.6 56.8601 190.912 57.8801 191.536V190.402C57.8801 188.77 56.8601 187.954 54.8201 187.954C53.7881 187.954 52.8161 188.26 51.9041 188.872V188.044C52.7801 187.48 53.8001 187.198 54.9641 187.198C56.1161 187.198 57.0221 187.468 57.6821 188.008C58.3541 188.536 58.6901 189.31 58.6901 190.33V194.146C58.6901 194.518 58.7741 194.818 58.9421 195.046C59.1101 195.262 59.3381 195.37 59.6261 195.37C59.8181 195.37 59.9861 195.334 60.1301 195.262V195.928C59.9621 196.024 59.7281 196.072 59.4281 196.072C59.0201 196.072 58.6781 195.946 58.4021 195.694C58.1381 195.43 57.9881 195.058 57.9521 194.578C57.0161 195.67 55.7861 196.216 54.2621 196.216Z" fill="black"/>
<path d="M63.0977 196H62.2877V187.414H63.0977V191.212H69.0917V187.414H69.9017V196H69.0917V191.95H63.0977V196Z" fill="black"/>
<path d="M77.039 196.216C75.719 196.216 74.639 195.778 73.799 194.902C72.947 194.014 72.521 192.946 72.521 191.698C72.521 190.462 72.947 189.4 73.799 188.512C74.639 187.636 75.725 187.198 77.057 187.198C78.017 187.198 78.881 187.42 79.649 187.864V188.656C78.845 188.188 78.011 187.954 77.147 187.954C76.067 187.954 75.161 188.314 74.429 189.034C73.709 189.754 73.349 190.648 73.349 191.716C73.349 192.784 73.709 193.678 74.429 194.398C75.173 195.106 76.079 195.46 77.147 195.46C78.155 195.46 79.043 195.19 79.811 194.65V195.46C79.055 195.964 78.131 196.216 77.039 196.216Z" fill="black"/>
<path d="M87.6167 199.528H86.8067V196.162C85.2587 196.138 84.0347 195.73 83.1347 194.938C82.2347 194.134 81.7847 193.06 81.7847 191.716C81.7847 190.36 82.2347 189.286 83.1347 188.494C84.0347 187.69 85.2587 187.276 86.8067 187.252V183.4H87.6167V187.252C89.1647 187.276 90.3887 187.69 91.2887 188.494C92.2007 189.286 92.6567 190.36 92.6567 191.716C92.6567 193.06 92.2007 194.134 91.2887 194.938C90.3887 195.73 89.1647 196.138 87.6167 196.162V199.528ZM87.6167 187.99V195.424C88.8287 195.424 89.8367 195.106 90.6407 194.47C91.4447 193.846 91.8467 192.928 91.8467 191.716C91.8467 190.504 91.4447 189.586 90.6407 188.962C89.8487 188.314 88.8407 187.99 87.6167 187.99ZM86.8067 195.424V187.99C85.6067 187.99 84.5987 188.314 83.7827 188.962C82.9787 189.586 82.5767 190.504 82.5767 191.716C82.5767 192.928 82.9787 193.846 83.7827 194.47C84.5987 195.106 85.6067 195.424 86.8067 195.424Z" fill="black"/>
<path d="M96.5243 194.398C97.2563 195.106 98.1443 195.46 99.1883 195.46C100.244 195.46 101.126 195.106 101.834 194.398C102.554 193.678 102.914 192.784 102.914 191.716C102.914 190.648 102.554 189.754 101.834 189.034C101.126 188.314 100.244 187.954 99.1883 187.954C98.1323 187.954 97.2443 188.314 96.5243 189.034C95.8163 189.766 95.4623 190.66 95.4623 191.716C95.4623 192.772 95.8163 193.666 96.5243 194.398ZM102.464 194.902C101.624 195.778 100.532 196.216 99.1883 196.216C97.8323 196.216 96.7343 195.778 95.8943 194.902C95.0543 194.026 94.6343 192.964 94.6343 191.716C94.6343 190.468 95.0543 189.406 95.8943 188.53C96.7463 187.642 97.8443 187.198 99.1883 187.198C100.52 187.198 101.612 187.642 102.464 188.53C103.316 189.418 103.742 190.48 103.742 191.716C103.742 192.952 103.316 194.014 102.464 194.902Z" fill="black"/>
<path d="M110.712 187.198C111.996 187.198 113.046 187.642 113.862 188.53C114.678 189.418 115.086 190.474 115.086 191.698C115.086 192.934 114.678 193.996 113.862 194.884C113.046 195.772 111.996 196.216 110.712 196.216C109.188 196.216 108.006 195.634 107.166 194.47V199.6H106.356V187.414H107.166V188.926C108.018 187.774 109.2 187.198 110.712 187.198ZM110.568 187.954C109.824 187.954 109.14 188.152 108.516 188.548C107.892 188.944 107.442 189.454 107.166 190.078V193.318C107.454 193.942 107.91 194.458 108.534 194.866C109.17 195.262 109.848 195.46 110.568 195.46C111.624 195.46 112.5 195.1 113.196 194.38C113.904 193.648 114.258 192.754 114.258 191.698C114.258 190.63 113.904 189.742 113.196 189.034C112.5 188.314 111.624 187.954 110.568 187.954Z" fill="black"/>
<path d="M118.504 196H117.694V187.414H118.468L122.284 191.734L126.1 187.414H126.874V196H126.064V188.566L122.428 192.688H122.122L118.504 188.566V196Z" fill="black"/>
<path d="M132.947 195.46C133.631 195.46 134.273 195.298 134.873 194.974C135.473 194.65 135.959 194.242 136.331 193.75V192.328C135.299 191.656 134.249 191.32 133.181 191.32C132.281 191.32 131.567 191.512 131.039 191.896C130.511 192.268 130.247 192.766 130.247 193.39C130.247 194.062 130.499 194.578 131.003 194.938C131.507 195.286 132.155 195.46 132.947 195.46ZM132.713 196.216C131.825 196.216 131.045 195.97 130.373 195.478C129.725 194.974 129.401 194.284 129.401 193.408C129.401 192.556 129.737 191.878 130.409 191.374C131.081 190.858 131.933 190.6 132.965 190.6C134.189 190.6 135.311 190.912 136.331 191.536V190.402C136.331 188.77 135.311 187.954 133.271 187.954C132.239 187.954 131.267 188.26 130.355 188.872V188.044C131.231 187.48 132.251 187.198 133.415 187.198C134.567 187.198 135.473 187.468 136.133 188.008C136.805 188.536 137.141 189.31 137.141 190.33V194.146C137.141 194.518 137.225 194.818 137.393 195.046C137.561 195.262 137.789 195.37 138.077 195.37C138.269 195.37 138.437 195.334 138.581 195.262V195.928C138.413 196.024 138.179 196.072 137.879 196.072C137.471 196.072 137.129 195.946 136.853 195.694C136.589 195.43 136.439 195.058 136.403 194.578C135.467 195.67 134.237 196.216 132.713 196.216Z" fill="black"/>
<path d="M149.793 198.682H149.001V196H140.739V187.414H141.549V195.262H147.327V187.414H148.137V195.262H149.793V198.682Z" fill="black"/>
<path d="M152.762 196H152.006V187.414H152.816V194.776L158.972 187.414H159.71V196H158.9V188.656L152.762 196Z" fill="black"/>
<path d="M163.281 196H162.309L165.027 192.49C164.271 192.418 163.683 192.16 163.263 191.716C162.843 191.26 162.633 190.672 162.633 189.952C162.633 189.184 162.891 188.572 163.407 188.116C163.935 187.648 164.661 187.414 165.585 187.414H169.923V196H169.113V192.598H165.891L163.281 196ZM165.693 191.86H169.113V188.152H165.693C164.985 188.152 164.433 188.314 164.037 188.638C163.653 188.962 163.461 189.418 163.461 190.006C163.461 190.582 163.653 191.038 164.037 191.374C164.433 191.698 164.985 191.86 165.693 191.86Z" fill="black"/>
<path d="M178.815 196H178.005V187.414H178.815V191.032L183.333 187.414H184.521L179.679 191.302L185.169 196H183.945L178.815 191.608V196Z" fill="black"/>
<path d="M191.642 187.198C192.926 187.198 193.976 187.642 194.792 188.53C195.608 189.418 196.016 190.474 196.016 191.698C196.016 192.934 195.608 193.996 194.792 194.884C193.976 195.772 192.926 196.216 191.642 196.216C190.118 196.216 188.936 195.634 188.096 194.47V199.6H187.286V187.414H188.096V188.926C188.948 187.774 190.13 187.198 191.642 187.198ZM191.498 187.954C190.754 187.954 190.07 188.152 189.446 188.548C188.822 188.944 188.372 189.454 188.096 190.078V193.318C188.384 193.942 188.84 194.458 189.464 194.866C190.1 195.262 190.778 195.46 191.498 195.46C192.554 195.46 193.43 195.1 194.126 194.38C194.834 193.648 195.188 192.754 195.188 191.698C195.188 190.63 194.834 189.742 194.126 189.034C193.43 188.314 192.554 187.954 191.498 187.954Z" fill="black"/>
<path d="M198.611 199.672C198.083 199.672 197.675 199.582 197.387 199.402V198.628C197.735 198.82 198.113 198.916 198.521 198.916C199.109 198.916 199.583 198.682 199.943 198.214C200.315 197.782 200.747 197.002 201.239 195.874L197.261 187.414H198.179L201.653 194.884L205.019 187.414H205.901L201.563 196.972C201.155 197.896 200.717 198.574 200.249 199.006C199.793 199.45 199.247 199.672 198.611 199.672Z" fill="black"/>
<path d="M208.979 196H208.169V187.414H215.639V196H214.829V188.152H208.979V196Z" fill="black"/>
<path d="M219.701 196H218.891V187.414H219.701V191.212H225.695V187.414H226.505V196H225.695V191.95H219.701V196Z" fill="black"/>
<path d="M233.805 196.216C232.449 196.216 231.333 195.796 230.457 194.956C229.569 194.104 229.125 193.024 229.125 191.716C229.125 190.42 229.521 189.346 230.313 188.494C231.105 187.63 232.131 187.198 233.391 187.198C234.099 187.198 234.723 187.342 235.263 187.63C235.803 187.906 236.217 188.284 236.505 188.764C237.069 189.664 237.351 190.594 237.351 191.554V191.824H229.935C229.959 192.916 230.337 193.792 231.069 194.452C231.813 195.124 232.761 195.46 233.913 195.46C234.945 195.46 235.869 195.19 236.685 194.65V195.442C236.013 195.958 235.053 196.216 233.805 196.216ZM229.953 191.122H236.541C236.541 190.786 236.481 190.444 236.361 190.096C236.241 189.748 236.061 189.412 235.821 189.088C235.593 188.752 235.263 188.482 234.831 188.278C234.399 188.062 233.913 187.954 233.373 187.954C232.365 187.954 231.555 188.278 230.943 188.926C230.331 189.574 230.001 190.306 229.953 191.122Z" fill="black"/>
<path d="M240.723 196H239.967V187.414H240.777V194.776L246.933 187.414H247.671V196H246.861V188.656L240.723 196ZM243.801 185.956C242.961 185.956 242.283 185.722 241.767 185.254C241.263 184.774 241.011 184.156 241.011 183.4H241.749C241.749 183.952 241.935 184.402 242.307 184.75C242.691 185.098 243.189 185.272 243.801 185.272C244.401 185.272 244.887 185.098 245.259 184.75C245.631 184.39 245.817 183.94 245.817 183.4H246.555C246.555 184.132 246.291 184.744 245.763 185.236C245.247 185.716 244.593 185.956 243.801 185.956Z" fill="black"/>
<path d="M262.294 196H250.936V187.414H251.746V195.262H256.21V187.414H257.02V195.262H261.484V187.414H262.294V196Z" fill="black"/>
<path d="M269.594 196.216C268.238 196.216 267.122 195.796 266.246 194.956C265.358 194.104 264.914 193.024 264.914 191.716C264.914 190.42 265.31 189.346 266.102 188.494C266.894 187.63 267.92 187.198 269.18 187.198C269.888 187.198 270.512 187.342 271.052 187.63C271.592 187.906 272.006 188.284 272.294 188.764C272.858 189.664 273.14 190.594 273.14 191.554V191.824H265.724C265.748 192.916 266.126 193.792 266.858 194.452C267.602 195.124 268.55 195.46 269.702 195.46C270.734 195.46 271.658 195.19 272.474 194.65V195.442C271.802 195.958 270.842 196.216 269.594 196.216ZM265.742 191.122H272.33C272.33 190.786 272.27 190.444 272.15 190.096C272.03 189.748 271.85 189.412 271.61 189.088C271.382 188.752 271.052 188.482 270.62 188.278C270.188 188.062 269.702 187.954 269.162 187.954C268.154 187.954 267.344 188.278 266.732 188.926C266.12 189.574 265.79 190.306 265.742 191.122Z" fill="black"/>
<path d="M276.566 196H275.757V187.414H282.038V188.152H276.566V196Z" fill="black"/>
<path d="M285.225 194.398C285.957 195.106 286.845 195.46 287.889 195.46C288.945 195.46 289.827 195.106 290.535 194.398C291.255 193.678 291.615 192.784 291.615 191.716C291.615 190.648 291.255 189.754 290.535 189.034C289.827 188.314 288.945 187.954 287.889 187.954C286.833 187.954 285.945 188.314 285.225 189.034C284.517 189.766 284.163 190.66 284.163 191.716C284.163 192.772 284.517 193.666 285.225 194.398ZM291.165 194.902C290.325 195.778 289.233 196.216 287.889 196.216C286.533 196.216 285.435 195.778 284.595 194.902C283.755 194.026 283.335 192.964 283.335 191.716C283.335 190.468 283.755 189.406 284.595 188.53C285.447 187.642 286.545 187.198 287.889 187.198C289.221 187.198 290.313 187.642 291.165 188.53C292.017 189.418 292.443 190.48 292.443 191.716C292.443 192.952 292.017 194.014 291.165 194.902Z" fill="black"/>
<path d="M299.874 196H298.758L303.546 191.392L299.208 187.414H300.288L304.356 191.194V187.414H305.148V191.176L309.216 187.414H310.296L305.976 191.392L310.746 196H309.612L305.148 191.68V196H304.356V191.662L299.874 196Z" fill="black"/>
<path d="M316.193 196.216C314.837 196.216 313.721 195.796 312.845 194.956C311.957 194.104 311.513 193.024 311.513 191.716C311.513 190.42 311.909 189.346 312.701 188.494C313.493 187.63 314.519 187.198 315.779 187.198C316.487 187.198 317.111 187.342 317.651 187.63C318.191 187.906 318.605 188.284 318.893 188.764C319.457 189.664 319.739 190.594 319.739 191.554V191.824H312.323C312.347 192.916 312.725 193.792 313.457 194.452C314.201 195.124 315.149 195.46 316.301 195.46C317.333 195.46 318.257 195.19 319.073 194.65V195.442C318.401 195.958 317.441 196.216 316.193 196.216ZM312.341 191.122H318.929C318.929 190.786 318.869 190.444 318.749 190.096C318.629 189.748 318.449 189.412 318.209 189.088C317.981 188.752 317.651 188.482 317.219 188.278C316.787 188.062 316.301 187.954 315.761 187.954C314.753 187.954 313.943 188.278 313.331 188.926C312.719 189.574 312.389 190.306 312.341 191.122Z" fill="black"/>
<path d="M323.403 190.168L323.475 187.414H329.523V196H328.713V188.152H324.267L324.213 189.97C324.201 190.798 324.154 191.536 324.069 192.184C323.997 192.796 323.865 193.414 323.673 194.038C323.289 195.358 322.491 196.018 321.279 196.018C321.123 196.018 321.015 196.012 320.955 196V195.244C321.015 195.256 321.135 195.262 321.315 195.262C322.143 195.262 322.695 194.704 322.971 193.588C323.199 192.712 323.343 191.572 323.403 190.168Z" fill="black"/>
<path d="M336.83 196.216C335.474 196.216 334.358 195.796 333.482 194.956C332.594 194.104 332.15 193.024 332.15 191.716C332.15 190.42 332.546 189.346 333.338 188.494C334.13 187.63 335.156 187.198 336.416 187.198C337.124 187.198 337.748 187.342 338.288 187.63C338.828 187.906 339.242 188.284 339.53 188.764C340.094 189.664 340.376 190.594 340.376 191.554V191.824H332.96C332.984 192.916 333.362 193.792 334.094 194.452C334.838 195.124 335.786 195.46 336.938 195.46C337.97 195.46 338.894 195.19 339.71 194.65V195.442C339.038 195.958 338.078 196.216 336.83 196.216ZM332.978 191.122H339.566C339.566 190.786 339.506 190.444 339.386 190.096C339.266 189.748 339.086 189.412 338.846 189.088C338.618 188.752 338.288 188.482 337.856 188.278C337.424 188.062 336.938 187.954 336.398 187.954C335.39 187.954 334.58 188.278 333.968 188.926C333.356 189.574 333.026 190.306 332.978 191.122Z" fill="black"/>
<path d="M345.322 196.216C344.122 196.216 343.09 196.012 342.226 195.604V194.794C343.126 195.238 344.128 195.46 345.232 195.46C346.18 195.46 346.942 195.292 347.518 194.956C348.094 194.608 348.382 194.146 348.382 193.57C348.382 193.03 348.136 192.604 347.644 192.292C347.164 191.968 346.522 191.806 345.718 191.806H344.278V191.068H345.718C346.462 191.068 347.032 190.924 347.428 190.636C347.836 190.348 348.04 189.988 348.04 189.556C348.04 189.04 347.8 188.644 347.32 188.368C346.852 188.092 346.198 187.954 345.358 187.954C344.386 187.954 343.432 188.146 342.496 188.53V187.738C343.372 187.378 344.368 187.198 345.484 187.198C346.468 187.198 347.272 187.402 347.896 187.81C348.532 188.218 348.85 188.758 348.85 189.43C348.85 190.354 348.316 191.008 347.248 191.392C348.556 191.752 349.21 192.496 349.21 193.624C349.21 194.404 348.856 195.034 348.148 195.514C347.452 195.982 346.51 196.216 345.322 196.216Z" fill="black"/>
<path d="M352.785 196H351.975V187.414H352.785V191.212H358.779V187.414H359.589V196H358.779V191.95H352.785V196Z" fill="black"/>
<path d="M364.099 194.398C364.831 195.106 365.719 195.46 366.763 195.46C367.819 195.46 368.701 195.106 369.409 194.398C370.129 193.678 370.489 192.784 370.489 191.716C370.489 190.648 370.129 189.754 369.409 189.034C368.701 188.314 367.819 187.954 366.763 187.954C365.707 187.954 364.819 188.314 364.099 189.034C363.391 189.766 363.037 190.66 363.037 191.716C363.037 192.772 363.391 193.666 364.099 194.398ZM370.039 194.902C369.199 195.778 368.107 196.216 366.763 196.216C365.407 196.216 364.309 195.778 363.469 194.902C362.629 194.026 362.209 192.964 362.209 191.716C362.209 190.468 362.629 189.406 363.469 188.53C364.321 187.642 365.419 187.198 366.763 187.198C368.095 187.198 369.187 187.642 370.039 188.53C370.891 189.418 371.317 190.48 371.317 191.716C371.317 192.952 370.891 194.014 370.039 194.902Z" fill="black"/>
<path d="M373.164 198.682H372.372V195.262H373.434C374.526 193.918 375.072 191.65 375.072 188.458L375.09 187.414H381.138V195.262H382.794V198.682H382.002V196H373.164V198.682ZM374.37 195.262H380.328V188.152H375.864V188.764C375.864 191.608 375.366 193.774 374.37 195.262Z" fill="black"/>
<path d="M386.265 194.398C386.997 195.106 387.885 195.46 388.929 195.46C389.985 195.46 390.867 195.106 391.575 194.398C392.295 193.678 392.655 192.784 392.655 191.716C392.655 190.648 392.295 189.754 391.575 189.034C390.867 188.314 389.985 187.954 388.929 187.954C387.873 187.954 386.985 188.314 386.265 189.034C385.557 189.766 385.203 190.66 385.203 191.716C385.203 192.772 385.557 193.666 386.265 194.398ZM392.205 194.902C391.365 195.778 390.273 196.216 388.929 196.216C387.573 196.216 386.475 195.778 385.635 194.902C384.795 194.026 384.375 192.964 384.375 191.716C384.375 190.468 384.795 189.406 385.635 188.53C386.487 187.642 387.585 187.198 388.929 187.198C390.261 187.198 391.353 187.642 392.205 188.53C393.057 189.418 393.483 190.48 393.483 191.716C393.483 192.952 393.057 194.014 392.205 194.902Z" fill="black"/>
<path d="M400.452 187.198C401.736 187.198 402.786 187.642 403.602 188.53C404.418 189.418 404.826 190.474 404.826 191.698C404.826 192.934 404.418 193.996 403.602 194.884C402.786 195.772 401.736 196.216 400.452 196.216C398.928 196.216 397.746 195.634 396.906 194.47V199.6H396.096V187.414H396.906V188.926C397.758 187.774 398.94 187.198 400.452 187.198ZM400.308 187.954C399.564 187.954 398.88 188.152 398.256 188.548C397.632 188.944 397.182 189.454 396.906 190.078V193.318C397.194 193.942 397.65 194.458 398.274 194.866C398.91 195.262 399.588 195.46 400.308 195.46C401.364 195.46 402.24 195.1 402.936 194.38C403.644 193.648 403.998 192.754 403.998 191.698C403.998 190.63 403.644 189.742 402.936 189.034C402.24 188.314 401.364 187.954 400.308 187.954Z" fill="black"/>
<path d="M408.694 194.398C409.426 195.106 410.314 195.46 411.358 195.46C412.414 195.46 413.296 195.106 414.004 194.398C414.724 193.678 415.084 192.784 415.084 191.716C415.084 190.648 414.724 189.754 414.004 189.034C413.296 188.314 412.414 187.954 411.358 187.954C410.302 187.954 409.414 188.314 408.694 189.034C407.986 189.766 407.632 190.66 407.632 191.716C407.632 192.772 407.986 193.666 408.694 194.398ZM414.634 194.902C413.794 195.778 412.702 196.216 411.358 196.216C410.002 196.216 408.904 195.778 408.064 194.902C407.224 194.026 406.804 192.964 406.804 191.716C406.804 190.468 407.224 189.406 408.064 188.53C408.916 187.642 410.014 187.198 411.358 187.198C412.69 187.198 413.782 187.642 414.634 188.53C415.486 189.418 415.912 190.48 415.912 191.716C415.912 192.952 415.486 194.014 414.634 194.902Z" fill="black"/>
<path d="M417.805 196H416.689L421.477 191.392L417.139 187.414H418.219L422.287 191.194V187.414H423.079V191.176L427.147 187.414H428.227L423.907 191.392L428.677 196H427.543L423.079 191.68V196H422.287V191.662L417.805 196Z" fill="black"/>
<path d="M431.606 196H430.796V187.414H431.606V191.212H437.6V187.414H438.41V196H437.6V191.95H431.606V196Z" fill="black"/>
<path d="M442.919 194.398C443.651 195.106 444.539 195.46 445.583 195.46C446.639 195.46 447.521 195.106 448.229 194.398C448.949 193.678 449.309 192.784 449.309 191.716C449.309 190.648 448.949 189.754 448.229 189.034C447.521 188.314 446.639 187.954 445.583 187.954C444.527 187.954 443.639 188.314 442.919 189.034C442.211 189.766 441.857 190.66 441.857 191.716C441.857 192.772 442.211 193.666 442.919 194.398ZM448.859 194.902C448.019 195.778 446.927 196.216 445.583 196.216C444.227 196.216 443.129 195.778 442.289 194.902C441.449 194.026 441.029 192.964 441.029 191.716C441.029 190.468 441.449 189.406 442.289 188.53C443.141 187.642 444.239 187.198 445.583 187.198C446.915 187.198 448.007 187.642 448.859 188.53C449.711 189.418 450.137 190.48 450.137 191.716C450.137 192.952 449.711 194.014 448.859 194.902Z" fill="black"/>
<path d="M453.561 196H452.751V187.414H459.033V188.152H453.561V196Z" fill="black"/>
<path d="M462.22 194.398C462.952 195.106 463.84 195.46 464.884 195.46C465.94 195.46 466.822 195.106 467.53 194.398C468.25 193.678 468.61 192.784 468.61 191.716C468.61 190.648 468.25 189.754 467.53 189.034C466.822 188.314 465.94 187.954 464.884 187.954C463.828 187.954 462.94 188.314 462.22 189.034C461.512 189.766 461.158 190.66 461.158 191.716C461.158 192.772 461.512 193.666 462.22 194.398ZM468.16 194.902C467.32 195.778 466.228 196.216 464.884 196.216C463.528 196.216 462.43 195.778 461.59 194.902C460.75 194.026 460.33 192.964 460.33 191.716C460.33 190.468 460.75 189.406 461.59 188.53C462.442 187.642 463.54 187.198 464.884 187.198C466.216 187.198 467.308 187.642 468.16 188.53C469.012 189.418 469.438 190.48 469.438 191.716C469.438 192.952 469.012 194.014 468.16 194.902Z" fill="black"/>
<path d="M481.602 196H476.868V187.414H481.242C482.034 187.414 482.652 187.612 483.096 188.008C483.54 188.392 483.762 188.914 483.762 189.574C483.762 190.534 483.39 191.17 482.646 191.482C483.774 191.806 484.338 192.55 484.338 193.714C484.338 194.41 484.092 194.968 483.6 195.388C483.12 195.796 482.454 196 481.602 196ZM477.678 191.95V195.262H481.44C482.1 195.262 482.61 195.118 482.97 194.83C483.33 194.542 483.51 194.134 483.51 193.606C483.51 193.078 483.33 192.67 482.97 192.382C482.61 192.094 482.1 191.95 481.44 191.95H477.678ZM477.678 188.152V191.212H481.026C481.638 191.212 482.106 191.08 482.43 190.816C482.766 190.552 482.934 190.174 482.934 189.682C482.934 189.19 482.766 188.812 482.43 188.548C482.106 188.284 481.638 188.152 481.026 188.152H477.678Z" fill="black"/>
<path d="M486.997 199.672C486.469 199.672 486.061 199.582 485.773 199.402V198.628C486.121 198.82 486.499 198.916 486.907 198.916C487.495 198.916 487.969 198.682 488.329 198.214C488.701 197.782 489.133 197.002 489.625 195.874L485.647 187.414H486.565L490.039 194.884L493.405 187.414H494.287L489.949 196.972C489.541 197.896 489.103 198.574 488.635 199.006C488.179 199.45 487.633 199.672 486.997 199.672Z" fill="black"/>
<path d="M498.92 196.216C497.72 196.216 496.688 196.012 495.824 195.604V194.794C496.724 195.238 497.726 195.46 498.83 195.46C499.778 195.46 500.54 195.292 501.116 194.956C501.692 194.608 501.98 194.146 501.98 193.57C501.98 193.03 501.734 192.604 501.242 192.292C500.762 191.968 500.12 191.806 499.316 191.806H497.876V191.068H499.316C500.06 191.068 500.63 190.924 501.026 190.636C501.434 190.348 501.638 189.988 501.638 189.556C501.638 189.04 501.398 188.644 500.918 188.368C500.45 188.092 499.796 187.954 498.956 187.954C497.984 187.954 497.03 188.146 496.094 188.53V187.738C496.97 187.378 497.966 187.198 499.082 187.198C500.066 187.198 500.87 187.402 501.494 187.81C502.13 188.218 502.448 188.758 502.448 189.43C502.448 190.354 501.914 191.008 500.846 191.392C502.154 191.752 502.808 192.496 502.808 193.624C502.808 194.404 502.454 195.034 501.746 195.514C501.05 195.982 500.108 196.216 498.92 196.216Z" fill="black"/>
<path d="M508.381 195.46C509.065 195.46 509.707 195.298 510.307 194.974C510.907 194.65 511.393 194.242 511.765 193.75V192.328C510.733 191.656 509.683 191.32 508.615 191.32C507.715 191.32 507.001 191.512 506.473 191.896C505.945 192.268 505.681 192.766 505.681 193.39C505.681 194.062 505.933 194.578 506.437 194.938C506.941 195.286 507.589 195.46 508.381 195.46ZM508.147 196.216C507.259 196.216 506.479 195.97 505.807 195.478C505.159 194.974 504.835 194.284 504.835 193.408C504.835 192.556 505.171 191.878 505.843 191.374C506.515 190.858 507.367 190.6 508.399 190.6C509.623 190.6 510.745 190.912 511.765 191.536V190.402C511.765 188.77 510.745 187.954 508.705 187.954C507.673 187.954 506.701 188.26 505.789 188.872V188.044C506.665 187.48 507.685 187.198 508.849 187.198C510.001 187.198 510.907 187.468 511.567 188.008C512.239 188.536 512.575 189.31 512.575 190.33V194.146C512.575 194.518 512.659 194.818 512.827 195.046C512.995 195.262 513.223 195.37 513.511 195.37C513.703 195.37 513.871 195.334 514.015 195.262V195.928C513.847 196.024 513.613 196.072 513.313 196.072C512.905 196.072 512.563 195.946 512.287 195.694C512.023 195.43 511.873 195.058 511.837 194.578C510.901 195.67 509.671 196.216 508.147 196.216Z" fill="black"/>
<path d="M525.723 196H520.989V187.414H525.363C526.155 187.414 526.773 187.612 527.217 188.008C527.661 188.392 527.883 188.914 527.883 189.574C527.883 190.534 527.511 191.17 526.767 191.482C527.895 191.806 528.459 192.55 528.459 193.714C528.459 194.41 528.213 194.968 527.721 195.388C527.241 195.796 526.575 196 525.723 196ZM521.799 191.95V195.262H525.561C526.221 195.262 526.731 195.118 527.091 194.83C527.451 194.542 527.631 194.134 527.631 193.606C527.631 193.078 527.451 192.67 527.091 192.382C526.731 192.094 526.221 191.95 525.561 191.95H521.799ZM521.799 188.152V191.212H525.147C525.759 191.212 526.227 191.08 526.551 190.816C526.887 190.552 527.055 190.174 527.055 189.682C527.055 189.19 526.887 188.812 526.551 188.548C526.227 188.284 525.759 188.152 525.147 188.152H521.799Z" fill="black"/>
<path d="M537.349 194.398C538.081 195.106 538.969 195.46 540.013 195.46C541.069 195.46 541.951 195.106 542.659 194.398C543.378 193.678 543.739 192.784 543.739 191.716C543.739 190.648 543.378 189.754 542.659 189.034C541.951 188.314 541.069 187.954 540.013 187.954C538.956 187.954 538.068 188.314 537.349 189.034C536.641 189.766 536.286 190.66 536.286 191.716C536.286 192.772 536.641 193.666 537.349 194.398ZM543.289 194.902C542.448 195.778 541.357 196.216 540.013 196.216C538.656 196.216 537.559 195.778 536.719 194.902C535.878 194.026 535.458 192.964 535.458 191.716C535.458 190.468 535.878 189.406 536.719 188.53C537.57 187.642 538.669 187.198 540.013 187.198C541.344 187.198 542.437 187.642 543.289 188.53C544.141 189.418 544.567 190.48 544.567 191.716C544.567 192.952 544.141 194.014 543.289 194.902Z" fill="black"/>
<path d="M551.356 196.216C549.928 196.216 548.8 195.706 547.972 194.686C547.144 193.666 546.73 192.262 546.73 190.474C546.73 188.026 547.378 186.28 548.674 185.236C549.502 184.564 550.858 184.024 552.742 183.616L554.704 183.22V184.03L551.68 184.678C550.336 184.978 549.304 185.542 548.584 186.37C547.888 187.186 547.534 188.422 547.522 190.078C547.894 189.37 548.434 188.812 549.142 188.404C549.85 187.984 550.666 187.774 551.59 187.774C552.73 187.774 553.684 188.152 554.452 188.908C555.232 189.664 555.622 190.636 555.622 191.824C555.622 193.108 555.208 194.164 554.38 194.992C553.54 195.808 552.532 196.216 551.356 196.216ZM551.374 195.46C552.31 195.46 553.114 195.124 553.786 194.452C554.47 193.78 554.812 192.916 554.812 191.86C554.812 190.864 554.476 190.06 553.804 189.448C553.132 188.836 552.34 188.53 551.428 188.53C550.552 188.53 549.76 188.794 549.052 189.322C548.38 189.838 547.894 190.456 547.594 191.176C547.654 192.508 548.014 193.558 548.674 194.326C549.346 195.082 550.246 195.46 551.374 195.46Z" fill="black"/>
<path d="M571.269 198.682H570.513V196H558.237V187.414H559.047V195.262H563.511V187.414H564.321V195.262H568.785V187.414H569.595V195.262H571.269V198.682Z" fill="black"/>
<path d="M577.527 196.216C576.171 196.216 575.055 195.796 574.179 194.956C573.291 194.104 572.847 193.024 572.847 191.716C572.847 190.42 573.243 189.346 574.035 188.494C574.827 187.63 575.853 187.198 577.113 187.198C577.821 187.198 578.445 187.342 578.985 187.63C579.525 187.906 579.939 188.284 580.227 188.764C580.791 189.664 581.073 190.594 581.073 191.554V191.824H573.657C573.681 192.916 574.059 193.792 574.791 194.452C575.535 195.124 576.483 195.46 577.635 195.46C578.667 195.46 579.591 195.19 580.407 194.65V195.442C579.735 195.958 578.775 196.216 577.527 196.216ZM573.675 191.122H580.263C580.263 190.786 580.203 190.444 580.083 190.096C579.963 189.748 579.783 189.412 579.543 189.088C579.315 188.752 578.985 188.482 578.553 188.278C578.121 188.062 577.635 187.954 577.095 187.954C576.087 187.954 575.277 188.278 574.665 188.926C574.053 189.574 573.723 190.306 573.675 191.122Z" fill="black"/>
<path d="M586.379 196H585.569V188.152H582.293V187.414H589.655V188.152H586.379V196Z" fill="black"/>
<path d="M596.15 187.198C597.434 187.198 598.484 187.642 599.3 188.53C600.116 189.418 600.524 190.474 600.524 191.698C600.524 192.934 600.116 193.996 599.3 194.884C598.484 195.772 597.434 196.216 596.15 196.216C594.626 196.216 593.444 195.634 592.604 194.47V199.6H591.794V187.414H592.604V188.926C593.456 187.774 594.638 187.198 596.15 187.198ZM596.006 187.954C595.262 187.954 594.578 188.152 593.954 188.548C593.33 188.944 592.88 189.454 592.604 190.078V193.318C592.892 193.942 593.348 194.458 593.972 194.866C594.608 195.262 595.286 195.46 596.006 195.46C597.062 195.46 597.938 195.1 598.634 194.38C599.342 193.648 599.696 192.754 599.696 191.698C599.696 190.63 599.342 189.742 598.634 189.034C597.938 188.314 597.062 187.954 596.006 187.954Z" fill="black"/>
<path d="M605.94 195.46C606.624 195.46 607.266 195.298 607.865 194.974C608.465 194.65 608.951 194.242 609.323 193.75V192.328C608.292 191.656 607.241 191.32 606.173 191.32C605.273 191.32 604.56 191.512 604.031 191.896C603.503 192.268 603.24 192.766 603.24 193.39C603.24 194.062 603.491 194.578 603.995 194.938C604.5 195.286 605.148 195.46 605.94 195.46ZM605.706 196.216C604.818 196.216 604.037 195.97 603.365 195.478C602.717 194.974 602.393 194.284 602.393 193.408C602.393 192.556 602.729 191.878 603.401 191.374C604.073 190.858 604.926 190.6 605.958 190.6C607.182 190.6 608.303 190.912 609.323 191.536V190.402C609.323 188.77 608.303 187.954 606.263 187.954C605.232 187.954 604.259 188.26 603.347 188.872V188.044C604.223 187.48 605.243 187.198 606.407 187.198C607.559 187.198 608.466 187.468 609.125 188.008C609.797 188.536 610.133 189.31 610.133 190.33V194.146C610.133 194.518 610.217 194.818 610.385 195.046C610.554 195.262 610.781 195.37 611.07 195.37C611.262 195.37 611.43 195.334 611.573 195.262V195.928C611.405 196.024 611.172 196.072 610.872 196.072C610.464 196.072 610.122 195.946 609.846 195.694C609.582 195.43 609.432 195.058 609.396 194.578C608.46 195.67 607.229 196.216 605.706 196.216Z" fill="black"/>
<path d="M614.541 196H613.731V187.414H614.541V191.212H620.535V187.414H621.345V196H620.535V191.95H614.541V196Z" fill="black"/>
<path d="M628.482 196.216C627.162 196.216 626.082 195.778 625.242 194.902C624.39 194.014 623.964 192.946 623.964 191.698C623.964 190.462 624.39 189.4 625.242 188.512C626.082 187.636 627.168 187.198 628.5 187.198C629.46 187.198 630.324 187.42 631.092 187.864V188.656C630.288 188.188 629.454 187.954 628.59 187.954C627.51 187.954 626.604 188.314 625.872 189.034C625.152 189.754 624.792 190.648 624.792 191.716C624.792 192.784 625.152 193.678 625.872 194.398C626.616 195.106 627.522 195.46 628.59 195.46C629.598 195.46 630.486 195.19 631.254 194.65V195.46C630.498 195.964 629.574 196.216 628.482 196.216Z" fill="black"/>
<path d="M634.844 196H634.034V187.414H641.504V196H640.694V188.152H634.844V196Z" fill="black"/>
<path d="M646.016 194.398C646.748 195.106 647.636 195.46 648.68 195.46C649.737 195.46 650.618 195.106 651.326 194.398C652.046 193.678 652.406 192.784 652.406 191.716C652.406 190.648 652.046 189.754 651.326 189.034C650.618 188.314 649.737 187.954 648.68 187.954C647.624 187.954 646.736 188.314 646.016 189.034C645.308 189.766 644.954 190.66 644.954 191.716C644.954 192.772 645.308 193.666 646.016 194.398ZM651.956 194.902C651.116 195.778 650.024 196.216 648.68 196.216C647.324 196.216 646.227 195.778 645.386 194.902C644.546 194.026 644.126 192.964 644.126 191.716C644.126 190.468 644.546 189.406 645.386 188.53C646.238 187.642 647.336 187.198 648.68 187.198C650.012 187.198 651.104 187.642 651.956 188.53C652.808 189.418 653.234 190.48 653.234 191.716C653.234 192.952 652.808 194.014 651.956 194.902Z" fill="black"/>
<path d="M660.204 187.198C661.488 187.198 662.538 187.642 663.354 188.53C664.17 189.418 664.578 190.474 664.578 191.698C664.578 192.934 664.17 193.996 663.354 194.884C662.538 195.772 661.488 196.216 660.204 196.216C658.68 196.216 657.498 195.634 656.658 194.47V199.6H655.848V187.414H656.658V188.926C657.51 187.774 658.692 187.198 660.204 187.198ZM660.06 187.954C659.316 187.954 658.632 188.152 658.008 188.548C657.384 188.944 656.934 189.454 656.658 190.078V193.318C656.946 193.942 657.402 194.458 658.026 194.866C658.662 195.262 659.34 195.46 660.06 195.46C661.116 195.46 661.992 195.1 662.688 194.38C663.396 193.648 663.75 192.754 663.75 191.698C663.75 190.63 663.396 189.742 662.688 189.034C661.992 188.314 661.116 187.954 660.06 187.954Z" fill="black"/>
<path d="M669.858 196H669.048V188.152H665.772V187.414H673.134V188.152H669.858V196Z" fill="black"/>
<path d="M676.082 196H675.272V187.414H676.082V191.212H682.076V187.414H682.886V196H682.076V191.95H676.082V196Z" fill="black"/>
<path d="M695.387 196H694.577V187.414H695.387V196ZM689.861 196H686.135V187.414H686.945V190.528H689.843C690.815 190.528 691.577 190.774 692.129 191.266C692.693 191.758 692.975 192.418 692.975 193.246C692.975 194.086 692.699 194.758 692.147 195.262C691.607 195.754 690.845 196 689.861 196ZM686.945 191.266V195.262H689.717C690.485 195.262 691.079 195.088 691.499 194.74C691.931 194.392 692.147 193.9 692.147 193.264C692.147 192.628 691.931 192.136 691.499 191.788C691.079 191.44 690.485 191.266 689.717 191.266H686.945Z" fill="black"/>
<path d="M699.407 196H698.651V187.414H699.461V194.776L705.617 187.414H706.355V196H705.545V188.656L699.407 196ZM702.485 185.956C701.645 185.956 700.967 185.722 700.451 185.254C699.947 184.774 699.695 184.156 699.695 183.4H700.433C700.433 183.952 700.619 184.402 700.991 184.75C701.375 185.098 701.873 185.272 702.485 185.272C703.085 185.272 703.571 185.098 703.943 184.75C704.315 184.39 704.501 183.94 704.501 183.4H705.239C705.239 184.132 704.975 184.744 704.447 185.236C703.931 185.716 703.277 185.956 702.485 185.956Z" fill="black"/>
<path d="M1.54238 222.672C1.01438 222.672 0.606383 222.582 0.318383 222.402V221.628C0.666383 221.82 1.04438 221.916 1.45238 221.916C2.04038 221.916 2.51438 221.682 2.87438 221.214C3.24638 220.782 3.67838 220.002 4.17038 218.874L0.192383 210.414H1.11038L4.58438 217.884L7.95038 210.414H8.83238L4.49438 219.972C4.08638 220.896 3.64838 221.574 3.18038 222.006C2.72438 222.45 2.17838 222.672 1.54238 222.672Z" fill="black"/>
<path d="M11.9102 219H11.1002V210.414H11.9102V214.212H17.9042V210.414H18.7142V219H17.9042V214.95H11.9102V219Z" fill="black"/>
<path d="M22.7195 219H21.9635V210.414H22.7735V217.776L28.9295 210.414H29.6675V219H28.8575V211.656L22.7195 219Z" fill="black"/>
<path d="M37.6663 219H32.9323V210.414H37.3063C38.0983 210.414 38.7163 210.612 39.1603 211.008C39.6043 211.392 39.8263 211.914 39.8263 212.574C39.8263 213.534 39.4543 214.17 38.7103 214.482C39.8383 214.806 40.4023 215.55 40.4023 216.714C40.4023 217.41 40.1563 217.968 39.6643 218.388C39.1843 218.796 38.5183 219 37.6663 219ZM33.7423 214.95V218.262H37.5043C38.1643 218.262 38.6743 218.118 39.0343 217.83C39.3943 217.542 39.5743 217.134 39.5743 216.606C39.5743 216.078 39.3943 215.67 39.0343 215.382C38.6743 215.094 38.1643 214.95 37.5043 214.95H33.7423ZM33.7423 211.152V214.212H37.0903C37.7023 214.212 38.1703 214.08 38.4943 213.816C38.8303 213.552 38.9983 213.174 38.9983 212.682C38.9983 212.19 38.8303 211.812 38.4943 211.548C38.1703 211.284 37.7023 211.152 37.0903 211.152H33.7423Z" fill="black"/>
<path d="M47.2655 219.216C45.9095 219.216 44.7935 218.796 43.9175 217.956C43.0295 217.104 42.5855 216.024 42.5855 214.716C42.5855 213.42 42.9815 212.346 43.7735 211.494C44.5655 210.63 45.5915 210.198 46.8515 210.198C47.5595 210.198 48.1835 210.342 48.7235 210.63C49.2635 210.906 49.6775 211.284 49.9655 211.764C50.5295 212.664 50.8115 213.594 50.8115 214.554V214.824H43.3955C43.4195 215.916 43.7975 216.792 44.5295 217.452C45.2735 218.124 46.2215 218.46 47.3735 218.46C48.4055 218.46 49.3295 218.19 50.1455 217.65V218.442C49.4735 218.958 48.5135 219.216 47.2655 219.216ZM43.4135 214.122H50.0015C50.0015 213.786 49.9415 213.444 49.8215 213.096C49.7015 212.748 49.5215 212.412 49.2815 212.088C49.0535 211.752 48.7235 211.482 48.2915 211.278C47.8595 211.062 47.3735 210.954 46.8335 210.954C45.8255 210.954 45.0155 211.278 44.4035 211.926C43.7915 212.574 43.4615 213.306 43.4135 214.122Z" fill="black"/>
<path d="M57.7844 210.198C59.0684 210.198 60.1184 210.642 60.9344 211.53C61.7504 212.418 62.1584 213.474 62.1584 214.698C62.1584 215.934 61.7504 216.996 60.9344 217.884C60.1184 218.772 59.0684 219.216 57.7844 219.216C56.2604 219.216 55.0784 218.634 54.2384 217.47V222.6H53.4284V210.414H54.2384V211.926C55.0904 210.774 56.2724 210.198 57.7844 210.198ZM57.6404 210.954C56.8964 210.954 56.2124 211.152 55.5884 211.548C54.9644 211.944 54.5144 212.454 54.2384 213.078V216.318C54.5264 216.942 54.9824 217.458 55.6064 217.866C56.2424 218.262 56.9204 218.46 57.6404 218.46C58.6964 218.46 59.5724 218.1 60.2684 217.38C60.9764 216.648 61.3304 215.754 61.3304 214.698C61.3304 213.63 60.9764 212.742 60.2684 212.034C59.5724 211.314 58.6964 210.954 57.6404 210.954Z" fill="black"/>
<path d="M68.6543 219.216C67.3343 219.216 66.2543 218.778 65.4143 217.902C64.5623 217.014 64.1363 215.946 64.1363 214.698C64.1363 213.462 64.5623 212.4 65.4143 211.512C66.2543 210.636 67.3403 210.198 68.6723 210.198C69.6323 210.198 70.4963 210.42 71.2643 210.864V211.656C70.4603 211.188 69.6263 210.954 68.7623 210.954C67.6823 210.954 66.7763 211.314 66.0443 212.034C65.3243 212.754 64.9643 213.648 64.9643 214.716C64.9643 215.784 65.3243 216.678 66.0443 217.398C66.7883 218.106 67.6943 218.46 68.7623 218.46C69.7703 218.46 70.6583 218.19 71.4263 217.65V218.46C70.6703 218.964 69.7463 219.216 68.6543 219.216Z" fill="black"/>
<path d="M74.9617 219H74.2057V210.414H75.0157V217.776L81.1717 210.414H81.9097V219H81.0997V211.656L74.9617 219Z" fill="black"/>
<path d="M88.1625 219H87.3525V211.152H84.0765V210.414H91.4385V211.152H88.1625V219Z" fill="black"/>
<path d="M97.328 219.216C95.972 219.216 94.856 218.796 93.98 217.956C93.092 217.104 92.648 216.024 92.648 214.716C92.648 213.42 93.044 212.346 93.836 211.494C94.628 210.63 95.654 210.198 96.914 210.198C97.622 210.198 98.246 210.342 98.786 210.63C99.326 210.906 99.74 211.284 100.028 211.764C100.592 212.664 100.874 213.594 100.874 214.554V214.824H93.458C93.482 215.916 93.86 216.792 94.592 217.452C95.336 218.124 96.284 218.46 97.436 218.46C98.468 218.46 99.392 218.19 100.208 217.65V218.442C99.536 218.958 98.576 219.216 97.328 219.216ZM93.476 214.122H100.064C100.064 213.786 100.004 213.444 99.884 213.096C99.764 212.748 99.584 212.412 99.344 212.088C99.116 211.752 98.786 211.482 98.354 211.278C97.922 211.062 97.436 210.954 96.896 210.954C95.888 210.954 95.078 211.278 94.466 211.926C93.854 212.574 93.524 213.306 93.476 214.122Z" fill="black"/>
<path d="M106.18 219H105.37V211.152H102.094V210.414H109.456V211.152H106.18V219Z" fill="black"/>
<path d="M110.018 221.736H109.316L110.684 217.434H111.692L110.018 221.736Z" fill="black"/>
<path d="M120.085 219H119.329V210.414H120.139V217.776L126.295 210.414H127.033V219H126.223V211.656L120.085 219Z" fill="black"/>
<path d="M131.108 219H130.298V210.414H131.108V214.212H137.102V210.414H137.912V219H137.102V214.95H131.108V219Z" fill="black"/>
<path d="M144.149 219H143.339V211.152H140.063V210.414H147.425V211.152H144.149V219Z" fill="black"/>
<path d="M153.314 219.216C151.958 219.216 150.842 218.796 149.966 217.956C149.078 217.104 148.634 216.024 148.634 214.716C148.634 213.42 149.03 212.346 149.822 211.494C150.614 210.63 151.64 210.198 152.9 210.198C153.608 210.198 154.232 210.342 154.772 210.63C155.312 210.906 155.726 211.284 156.014 211.764C156.578 212.664 156.86 213.594 156.86 214.554V214.824H149.444C149.468 215.916 149.846 216.792 150.578 217.452C151.322 218.124 152.27 218.46 153.422 218.46C154.454 218.46 155.378 218.19 156.194 217.65V218.442C155.522 218.958 154.562 219.216 153.314 219.216ZM149.462 214.122H156.05C156.05 213.786 155.99 213.444 155.87 213.096C155.75 212.748 155.57 212.412 155.33 212.088C155.102 211.752 154.772 211.482 154.34 211.278C153.908 211.062 153.422 210.954 152.882 210.954C151.874 210.954 151.064 211.278 150.452 211.926C149.84 212.574 149.51 213.306 149.462 214.122Z" fill="black"/>
<path d="M160.525 213.168L160.597 210.414H166.645V219H165.835V211.152H161.389L161.335 212.97C161.323 213.798 161.275 214.536 161.191 215.184C161.119 215.796 160.987 216.414 160.795 217.038C160.411 218.358 159.613 219.018 158.401 219.018C158.245 219.018 158.137 219.012 158.077 219V218.244C158.137 218.256 158.257 218.262 158.437 218.262C159.265 218.262 159.817 217.704 160.093 216.588C160.321 215.712 160.465 214.572 160.525 213.168Z" fill="black"/>
<path d="M171.089 213.168L171.161 210.414H177.209V219H176.399V211.152H171.953L171.899 212.97C171.887 213.798 171.839 214.536 171.755 215.184C171.683 215.796 171.551 216.414 171.359 217.038C170.975 218.358 170.177 219.018 168.965 219.018C168.809 219.018 168.701 219.012 168.641 219V218.244C168.701 218.256 168.821 218.262 169.001 218.262C169.829 218.262 170.381 217.704 170.657 216.588C170.885 215.712 171.029 214.572 171.089 213.168Z" fill="black"/>
<path d="M184.515 219.216C183.159 219.216 182.043 218.796 181.167 217.956C180.279 217.104 179.835 216.024 179.835 214.716C179.835 213.42 180.231 212.346 181.023 211.494C181.815 210.63 182.841 210.198 184.101 210.198C184.809 210.198 185.433 210.342 185.973 210.63C186.513 210.906 186.927 211.284 187.215 211.764C187.779 212.664 188.061 213.594 188.061 214.554V214.824H180.645C180.669 215.916 181.047 216.792 181.779 217.452C182.523 218.124 183.471 218.46 184.623 218.46C185.655 218.46 186.579 218.19 187.395 217.65V218.442C186.723 218.958 185.763 219.216 184.515 219.216ZM180.663 214.122H187.251C187.251 213.786 187.191 213.444 187.071 213.096C186.951 212.748 186.771 212.412 186.531 212.088C186.303 211.752 185.973 211.482 185.541 211.278C185.109 211.062 184.623 210.954 184.083 210.954C183.075 210.954 182.265 211.278 181.653 211.926C181.041 212.574 180.711 213.306 180.663 214.122Z" fill="black"/>
<path d="M191.488 219H190.678V210.414H191.488V214.032L196.006 210.414H197.194L192.352 214.302L197.842 219H196.618L191.488 214.608V219Z" fill="black"/>
<path d="M202.649 219H201.839V211.152H198.563V210.414H205.925V211.152H202.649V219Z" fill="black"/>
<path d="M208.261 222.672C207.733 222.672 207.325 222.582 207.037 222.402V221.628C207.385 221.82 207.763 221.916 208.171 221.916C208.759 221.916 209.233 221.682 209.593 221.214C209.965 220.782 210.397 220.002 210.889 218.874L206.911 210.414H207.829L211.303 217.884L214.669 210.414H215.551L211.213 219.972C210.805 220.896 210.367 221.574 209.899 222.006C209.443 222.45 208.897 222.672 208.261 222.672Z" fill="black"/>
<path d="M220.451 218.46C221.135 218.46 221.777 218.298 222.377 217.974C222.977 217.65 223.463 217.242 223.835 216.75V215.328C222.803 214.656 221.753 214.32 220.685 214.32C219.785 214.32 219.071 214.512 218.543 214.896C218.015 215.268 217.751 215.766 217.751 216.39C217.751 217.062 218.003 217.578 218.507 217.938C219.011 218.286 219.659 218.46 220.451 218.46ZM220.217 219.216C219.329 219.216 218.549 218.97 217.877 218.478C217.229 217.974 216.905 217.284 216.905 216.408C216.905 215.556 217.241 214.878 217.913 214.374C218.585 213.858 219.437 213.6 220.469 213.6C221.693 213.6 222.815 213.912 223.835 214.536V213.402C223.835 211.77 222.815 210.954 220.775 210.954C219.743 210.954 218.771 211.26 217.859 211.872V211.044C218.735 210.48 219.755 210.198 220.919 210.198C222.071 210.198 222.977 210.468 223.637 211.008C224.309 211.536 224.645 212.31 224.645 213.33V217.146C224.645 217.518 224.729 217.818 224.897 218.046C225.065 218.262 225.293 218.37 225.581 218.37C225.773 218.37 225.941 218.334 226.085 218.262V218.928C225.917 219.024 225.683 219.072 225.383 219.072C224.975 219.072 224.633 218.946 224.357 218.694C224.093 218.43 223.943 218.058 223.907 217.578C222.971 218.67 221.741 219.216 220.217 219.216Z" fill="black"/>
<path d="M229.431 213.168L229.503 210.414H235.551V219H234.741V211.152H230.295L230.241 212.97C230.229 213.798 230.181 214.536 230.097 215.184C230.025 215.796 229.893 216.414 229.701 217.038C229.317 218.358 228.519 219.018 227.307 219.018C227.151 219.018 227.043 219.012 226.983 219V218.244C227.043 218.256 227.163 218.262 227.343 218.262C228.171 218.262 228.723 217.704 228.999 216.588C229.227 215.712 229.371 214.572 229.431 213.168Z" fill="black"/>
<path d="M243.037 219H238.807V210.414H239.617V213.528H243.001C243.973 213.528 244.741 213.774 245.305 214.266C245.869 214.758 246.151 215.418 246.151 216.246C246.151 217.086 245.875 217.758 245.323 218.262C244.771 218.754 244.009 219 243.037 219ZM239.617 214.266V218.262H242.893C243.661 218.262 244.255 218.088 244.675 217.74C245.107 217.38 245.323 216.888 245.323 216.264C245.323 215.64 245.107 215.154 244.675 214.806C244.255 214.446 243.661 214.266 242.893 214.266H239.617Z" fill="black"/>
<path d="M249.566 219H248.756V210.414H249.566V214.212H255.56V210.414H256.37V219H255.56V214.95H249.566V219Z" fill="black"/>
<path d="M268.872 219H268.062V210.414H268.872V219ZM263.346 219H259.62V210.414H260.43V213.528H263.328C264.3 213.528 265.062 213.774 265.614 214.266C266.178 214.758 266.46 215.418 266.46 216.246C266.46 217.086 266.184 217.758 265.632 218.262C265.092 218.754 264.33 219 263.346 219ZM260.43 214.266V218.262H263.202C263.97 218.262 264.564 218.088 264.984 217.74C265.416 217.392 265.632 216.9 265.632 216.264C265.632 215.628 265.416 215.136 264.984 214.788C264.564 214.44 263.97 214.266 263.202 214.266H260.43Z" fill="black"/>
<path d="M272.891 219H272.135V210.414H272.945V217.776L279.101 210.414H279.839V219H279.029V211.656L272.891 219ZM275.969 208.956C275.129 208.956 274.451 208.722 273.935 208.254C273.431 207.774 273.179 207.156 273.179 206.4H273.917C273.917 206.952 274.103 207.402 274.475 207.75C274.859 208.098 275.357 208.272 275.969 208.272C276.569 208.272 277.055 208.098 277.427 207.75C277.799 207.39 277.985 206.94 277.985 206.4H278.723C278.723 207.132 278.459 207.744 277.931 208.236C277.415 208.716 276.761 208.956 275.969 208.956Z" fill="black"/>
<path d="M296.975 221.682H296.183V219H287.921V210.414H288.731V218.262H294.509V210.414H295.319V218.262H296.975V221.682Z" fill="black"/>
<path d="M303.238 219.216C301.882 219.216 300.766 218.796 299.89 217.956C299.002 217.104 298.558 216.024 298.558 214.716C298.558 213.42 298.954 212.346 299.746 211.494C300.538 210.63 301.564 210.198 302.824 210.198C303.532 210.198 304.156 210.342 304.696 210.63C305.236 210.906 305.65 211.284 305.938 211.764C306.502 212.664 306.784 213.594 306.784 214.554V214.824H299.368C299.392 215.916 299.77 216.792 300.502 217.452C301.246 218.124 302.194 218.46 303.346 218.46C304.378 218.46 305.302 218.19 306.118 217.65V218.442C305.446 218.958 304.486 219.216 303.238 219.216ZM299.386 214.122H305.974C305.974 213.786 305.914 213.444 305.794 213.096C305.674 212.748 305.494 212.412 305.254 212.088C305.026 211.752 304.696 211.482 304.264 211.278C303.832 211.062 303.346 210.954 302.806 210.954C301.798 210.954 300.988 211.278 300.376 211.926C299.764 212.574 299.434 213.306 299.386 214.122Z" fill="black"/>
<path d="M310.211 219H309.401V210.414H310.211V214.212H316.205V210.414H317.015V219H316.205V214.95H310.211V219Z" fill="black"/>
<path d="M323.252 219H322.442V211.152H319.166V210.414H326.528V211.152H323.252V219Z" fill="black"/>
<path d="M333.023 210.198C334.307 210.198 335.357 210.642 336.173 211.53C336.989 212.418 337.397 213.474 337.397 214.698C337.397 215.934 336.989 216.996 336.173 217.884C335.357 218.772 334.307 219.216 333.023 219.216C331.499 219.216 330.317 218.634 329.477 217.47V222.6H328.667V210.414H329.477V211.926C330.329 210.774 331.511 210.198 333.023 210.198ZM332.879 210.954C332.135 210.954 331.451 211.152 330.827 211.548C330.203 211.944 329.753 212.454 329.477 213.078V216.318C329.765 216.942 330.221 217.458 330.845 217.866C331.481 218.262 332.159 218.46 332.879 218.46C333.935 218.46 334.811 218.1 335.507 217.38C336.215 216.648 336.569 215.754 336.569 214.698C336.569 213.63 336.215 212.742 335.507 212.034C334.811 211.314 333.935 210.954 332.879 210.954Z" fill="black"/>
<path d="M345.631 219H344.821V210.414H352.291V219H351.481V211.152H345.631V219Z" fill="black"/>
<path d="M356.804 217.398C357.536 218.106 358.424 218.46 359.468 218.46C360.524 218.46 361.406 218.106 362.114 217.398C362.834 216.678 363.194 215.784 363.194 214.716C363.194 213.648 362.834 212.754 362.114 212.034C361.406 211.314 360.524 210.954 359.468 210.954C358.412 210.954 357.524 211.314 356.804 212.034C356.096 212.766 355.742 213.66 355.742 214.716C355.742 215.772 356.096 216.666 356.804 217.398ZM362.744 217.902C361.904 218.778 360.812 219.216 359.468 219.216C358.112 219.216 357.014 218.778 356.174 217.902C355.334 217.026 354.914 215.964 354.914 214.716C354.914 213.468 355.334 212.406 356.174 211.53C357.026 210.642 358.124 210.198 359.468 210.198C360.8 210.198 361.892 210.642 362.744 211.53C363.596 212.418 364.022 213.48 364.022 214.716C364.022 215.952 363.596 217.014 362.744 217.902Z" fill="black"/>
<path d="M365.869 221.682H365.077V218.262H366.139C367.231 216.918 367.777 214.65 367.777 211.458L367.795 210.414H373.843V218.262H375.499V221.682H374.707V219H365.869V221.682ZM367.075 218.262H373.033V211.152H368.569V211.764C368.569 214.608 368.071 216.774 367.075 218.262Z" fill="black"/>
<path d="M377.26 221.682H376.468V218.262H377.53C378.622 216.918 379.168 214.65 379.168 211.458L379.186 210.414H385.234V218.262H386.89V221.682H386.098V219H377.26V221.682ZM378.466 218.262H384.424V211.152H379.96V211.764C379.96 214.608 379.462 216.774 378.466 218.262Z" fill="black"/>
<path d="M393.15 219.216C391.794 219.216 390.678 218.796 389.802 217.956C388.914 217.104 388.47 216.024 388.47 214.716C388.47 213.42 388.866 212.346 389.658 211.494C390.45 210.63 391.476 210.198 392.736 210.198C393.444 210.198 394.068 210.342 394.608 210.63C395.148 210.906 395.562 211.284 395.85 211.764C396.414 212.664 396.696 213.594 396.696 214.554V214.824H389.28C389.304 215.916 389.682 216.792 390.414 217.452C391.158 218.124 392.106 218.46 393.258 218.46C394.29 218.46 395.214 218.19 396.03 217.65V218.442C395.358 218.958 394.398 219.216 393.15 219.216ZM389.298 214.122H395.886C395.886 213.786 395.826 213.444 395.706 213.096C395.586 212.748 395.406 212.412 395.166 212.088C394.938 211.752 394.608 211.482 394.176 211.278C393.744 211.062 393.258 210.954 392.718 210.954C391.71 210.954 390.9 211.278 390.288 211.926C389.676 212.574 389.346 213.306 389.298 214.122Z" fill="black"/>
<path d="M403.669 210.198C404.953 210.198 406.003 210.642 406.819 211.53C407.635 212.418 408.043 213.474 408.043 214.698C408.043 215.934 407.635 216.996 406.819 217.884C406.003 218.772 404.953 219.216 403.669 219.216C402.145 219.216 400.963 218.634 400.123 217.47V222.6H399.313V210.414H400.123V211.926C400.975 210.774 402.157 210.198 403.669 210.198ZM403.525 210.954C402.781 210.954 402.097 211.152 401.473 211.548C400.849 211.944 400.399 212.454 400.123 213.078V216.318C400.411 216.942 400.867 217.458 401.491 217.866C402.127 218.262 402.805 218.46 403.525 218.46C404.581 218.46 405.457 218.1 406.153 217.38C406.861 216.648 407.215 215.754 407.215 214.698C407.215 213.63 406.861 212.742 406.153 212.034C405.457 211.314 404.581 210.954 403.525 210.954Z" fill="black"/>
<path d="M409.93 219H408.814L413.602 214.392L409.264 210.414H410.344L414.412 214.194V210.414H415.204V214.176L419.272 210.414H420.352L416.032 214.392L420.802 219H419.668L415.204 214.68V219H414.412V214.662L409.93 219Z" fill="black"/>
<path d="M423.731 219H422.921V210.414H423.731V214.032L428.249 210.414H429.437L424.595 214.302L430.085 219H428.861L423.731 214.608V219Z" fill="black"/>
<path d="M432.958 219H432.202V210.414H433.012V217.776L439.168 210.414H439.906V219H439.096V211.656L432.958 219Z" fill="black"/>
<path d="M452.721 219H447.987V210.414H452.361C453.153 210.414 453.771 210.612 454.215 211.008C454.659 211.392 454.881 211.914 454.881 212.574C454.881 213.534 454.509 214.17 453.765 214.482C454.893 214.806 455.457 215.55 455.457 216.714C455.457 217.41 455.211 217.968 454.719 218.388C454.239 218.796 453.573 219 452.721 219ZM448.797 214.95V218.262H452.559C453.219 218.262 453.729 218.118 454.089 217.83C454.449 217.542 454.629 217.134 454.629 216.606C454.629 216.078 454.449 215.67 454.089 215.382C453.729 215.094 453.219 214.95 452.559 214.95H448.797ZM448.797 211.152V214.212H452.145C452.757 214.212 453.225 214.08 453.549 213.816C453.885 213.552 454.053 213.174 454.053 212.682C454.053 212.19 453.885 211.812 453.549 211.548C453.225 211.284 452.757 211.152 452.145 211.152H448.797Z" fill="black"/>
<path d="M459.08 219H458.27V210.414H459.08V214.212H465.074V210.414H465.884V219H465.074V214.95H459.08V219Z" fill="black"/>
<path d="M473.183 219.216C471.827 219.216 470.711 218.796 469.835 217.956C468.947 217.104 468.503 216.024 468.503 214.716C468.503 213.42 468.899 212.346 469.691 211.494C470.483 210.63 471.509 210.198 472.769 210.198C473.477 210.198 474.101 210.342 474.641 210.63C475.181 210.906 475.595 211.284 475.883 211.764C476.447 212.664 476.729 213.594 476.729 214.554V214.824H469.313C469.337 215.916 469.715 216.792 470.447 217.452C471.191 218.124 472.139 218.46 473.291 218.46C474.323 218.46 475.247 218.19 476.063 217.65V218.442C475.391 218.958 474.431 219.216 473.183 219.216ZM469.331 214.122H475.919C475.919 213.786 475.859 213.444 475.739 213.096C475.619 212.748 475.439 212.412 475.199 212.088C474.971 211.752 474.641 211.482 474.209 211.278C473.777 211.062 473.291 210.954 472.751 210.954C471.743 210.954 470.933 211.278 470.321 211.926C469.709 212.574 469.379 213.306 469.331 214.122Z" fill="black"/>
<path d="M478.896 221.682H478.104V218.262H479.166C480.258 216.918 480.804 214.65 480.804 211.458L480.822 210.414H486.87V218.262H488.526V221.682H487.734V219H478.896V221.682ZM480.102 218.262H486.06V211.152H481.596V211.764C481.596 214.608 481.098 216.774 480.102 218.262Z" fill="black"/>
<path d="M495.093 210.198C496.377 210.198 497.427 210.642 498.243 211.53C499.059 212.418 499.467 213.474 499.467 214.698C499.467 215.934 499.059 216.996 498.243 217.884C497.427 218.772 496.377 219.216 495.093 219.216C493.569 219.216 492.387 218.634 491.547 217.47V222.6H490.737V210.414H491.547V211.926C492.399 210.774 493.581 210.198 495.093 210.198ZM494.949 210.954C494.205 210.954 493.521 211.152 492.897 211.548C492.273 211.944 491.823 212.454 491.547 213.078V216.318C491.835 216.942 492.291 217.458 492.915 217.866C493.551 218.262 494.229 218.46 494.949 218.46C496.005 218.46 496.881 218.1 497.577 217.38C498.285 216.648 498.639 215.754 498.639 214.698C498.639 213.63 498.285 212.742 497.577 212.034C496.881 211.314 496.005 210.954 494.949 210.954Z" fill="black"/>
<path d="M506.125 219.216C504.769 219.216 503.653 218.796 502.777 217.956C501.889 217.104 501.445 216.024 501.445 214.716C501.445 213.42 501.841 212.346 502.633 211.494C503.425 210.63 504.451 210.198 505.711 210.198C506.419 210.198 507.043 210.342 507.583 210.63C508.123 210.906 508.537 211.284 508.825 211.764C509.389 212.664 509.671 213.594 509.671 214.554V214.824H502.255C502.279 215.916 502.657 216.792 503.389 217.452C504.133 218.124 505.081 218.46 506.233 218.46C507.265 218.46 508.189 218.19 509.005 217.65V218.442C508.333 218.958 507.373 219.216 506.125 219.216ZM502.273 214.122H508.861C508.861 213.786 508.801 213.444 508.681 213.096C508.561 212.748 508.381 212.412 508.141 212.088C507.913 211.752 507.583 211.482 507.151 211.278C506.719 211.062 506.233 210.954 505.693 210.954C504.685 210.954 503.875 211.278 503.263 211.926C502.651 212.574 502.321 213.306 502.273 214.122Z" fill="black"/>
<path d="M513.098 219H512.288V210.414H513.098V214.212H519.092V210.414H519.902V219H519.092V214.95H513.098V219Z" fill="black"/>
<path d="M523.907 219H523.151V210.414H523.961V217.776L530.117 210.414H530.855V219H530.045V211.656L523.907 219Z" fill="black"/>
<path d="M534.426 219H533.454L536.172 215.49C535.416 215.418 534.828 215.16 534.408 214.716C533.988 214.26 533.778 213.672 533.778 212.952C533.778 212.184 534.036 211.572 534.552 211.116C535.08 210.648 535.806 210.414 536.73 210.414H541.068V219H540.258V215.598H537.036L534.426 219ZM536.838 214.86H540.258V211.152H536.838C536.13 211.152 535.578 211.314 535.182 211.638C534.798 211.962 534.606 212.418 534.606 213.006C534.606 213.582 534.798 214.038 535.182 214.374C535.578 214.698 536.13 214.86 536.838 214.86Z" fill="black"/>
<path d="M549.959 219H549.149V210.414H549.959V214.212H555.953V210.414H556.763V219H555.953V214.95H549.959V219Z" fill="black"/>
<path d="M561.272 217.398C562.004 218.106 562.892 218.46 563.936 218.46C564.992 218.46 565.874 218.106 566.582 217.398C567.302 216.678 567.662 215.784 567.662 214.716C567.662 213.648 567.302 212.754 566.582 212.034C565.874 211.314 564.992 210.954 563.936 210.954C562.88 210.954 561.992 211.314 561.272 212.034C560.564 212.766 560.21 213.66 560.21 214.716C560.21 215.772 560.564 216.666 561.272 217.398ZM567.212 217.902C566.372 218.778 565.28 219.216 563.936 219.216C562.58 219.216 561.482 218.778 560.642 217.902C559.802 217.026 559.382 215.964 559.382 214.716C559.382 213.468 559.802 212.406 560.642 211.53C561.494 210.642 562.592 210.198 563.936 210.198C565.268 210.198 566.36 210.642 567.212 211.53C568.064 212.418 568.49 213.48 568.49 214.716C568.49 215.952 568.064 217.014 567.212 217.902Z" fill="black"/>
<path d="M575.838 219H571.104V210.414H575.478C576.27 210.414 576.888 210.612 577.332 211.008C577.776 211.392 577.998 211.914 577.998 212.574C577.998 213.534 577.626 214.17 576.882 214.482C578.01 214.806 578.574 215.55 578.574 216.714C578.574 217.41 578.328 217.968 577.836 218.388C577.356 218.796 576.69 219 575.838 219ZM571.914 214.95V218.262H575.676C576.336 218.262 576.846 218.118 577.206 217.83C577.566 217.542 577.746 217.134 577.746 216.606C577.746 216.078 577.566 215.67 577.206 215.382C576.846 215.094 576.336 214.95 575.676 214.95H571.914ZM571.914 211.152V214.212H575.262C575.874 214.212 576.342 214.08 576.666 213.816C577.002 213.552 577.17 213.174 577.17 212.682C577.17 212.19 577.002 211.812 576.666 211.548C576.342 211.284 575.874 211.152 575.262 211.152H571.914Z" fill="black"/>
<path d="M590.639 219H589.829V210.414H590.639V219ZM585.113 219H581.387V210.414H582.197V213.528H585.095C586.067 213.528 586.829 213.774 587.381 214.266C587.945 214.758 588.227 215.418 588.227 216.246C588.227 217.086 587.951 217.758 587.399 218.262C586.859 218.754 586.097 219 585.113 219ZM582.197 214.266V218.262H584.969C585.737 218.262 586.331 218.088 586.751 217.74C587.183 217.392 587.399 216.9 587.399 216.264C587.399 215.628 587.183 215.136 586.751 214.788C586.331 214.44 585.737 214.266 584.969 214.266H582.197Z" fill="black"/>
<path d="M593.921 219H592.949L596.711 214.428L593.435 210.414H594.443L597.215 213.798L600.005 210.414H600.959L597.701 214.392L601.463 219H600.437L597.179 215.022L593.921 219Z" fill="black"/>
<path d="M610.76 219H609.95V211.152H606.674V210.414H614.036V211.152H610.76V219Z" fill="black"/>
<path d="M619.926 219.216C618.57 219.216 617.454 218.796 616.578 217.956C615.69 217.104 615.246 216.024 615.246 214.716C615.246 213.42 615.642 212.346 616.434 211.494C617.226 210.63 618.252 210.198 619.512 210.198C620.22 210.198 620.844 210.342 621.384 210.63C621.924 210.906 622.338 211.284 622.626 211.764C623.19 212.664 623.472 213.594 623.472 214.554V214.824H616.056C616.08 215.916 616.458 216.792 617.19 217.452C617.934 218.124 618.882 218.46 620.034 218.46C621.066 218.46 621.99 218.19 622.806 217.65V218.442C622.134 218.958 621.174 219.216 619.926 219.216ZM616.074 214.122H622.662C622.662 213.786 622.602 213.444 622.482 213.096C622.362 212.748 622.182 212.412 621.942 212.088C621.714 211.752 621.384 211.482 620.952 211.278C620.52 211.062 620.034 210.954 619.494 210.954C618.486 210.954 617.676 211.278 617.064 211.926C616.452 212.574 616.122 213.306 616.074 214.122Z" fill="black"/>
<path d="M625.913 219H624.941L628.703 214.428L625.427 210.414H626.435L629.207 213.798L631.997 210.414H632.951L629.693 214.392L633.455 219H632.429L629.171 215.022L625.913 219Z" fill="black"/>
<path d="M636.479 219H635.669V210.414H636.479V214.212H642.473V210.414H643.283V219H642.473V214.95H636.479V219Z" fill="black"/>
<path d="M647.792 217.398C648.524 218.106 649.412 218.46 650.456 218.46C651.512 218.46 652.394 218.106 653.102 217.398C653.822 216.678 654.182 215.784 654.182 214.716C654.182 213.648 653.822 212.754 653.102 212.034C652.394 211.314 651.512 210.954 650.456 210.954C649.4 210.954 648.512 211.314 647.792 212.034C647.084 212.766 646.73 213.66 646.73 214.716C646.73 215.772 647.084 216.666 647.792 217.398ZM653.732 217.902C652.892 218.778 651.8 219.216 650.456 219.216C649.1 219.216 648.002 218.778 647.162 217.902C646.322 217.026 645.902 215.964 645.902 214.716C645.902 213.468 646.322 212.406 647.162 211.53C648.014 210.642 649.112 210.198 650.456 210.198C651.788 210.198 652.88 210.642 653.732 211.53C654.584 212.418 655.01 213.48 655.01 214.716C655.01 215.952 654.584 217.014 653.732 217.902Z" fill="black"/>
<path d="M658.548 213.168L658.62 210.414H664.668V219H663.858V211.152H659.412L659.358 212.97C659.346 213.798 659.298 214.536 659.214 215.184C659.142 215.796 659.01 216.414 658.818 217.038C658.434 218.358 657.636 219.018 656.424 219.018C656.268 219.018 656.16 219.012 656.1 219V218.244C656.16 218.256 656.28 218.262 656.46 218.262C657.288 218.262 657.84 217.704 658.116 216.588C658.344 215.712 658.488 214.572 658.548 213.168Z" fill="black"/>
<path d="M669.184 217.398C669.916 218.106 670.804 218.46 671.848 218.46C672.904 218.46 673.786 218.106 674.494 217.398C675.214 216.678 675.574 215.784 675.574 214.716C675.574 213.648 675.214 212.754 674.494 212.034C673.786 211.314 672.904 210.954 671.848 210.954C670.792 210.954 669.904 211.314 669.184 212.034C668.476 212.766 668.122 213.66 668.122 214.716C668.122 215.772 668.476 216.666 669.184 217.398ZM675.124 217.902C674.284 218.778 673.192 219.216 671.848 219.216C670.492 219.216 669.394 218.778 668.554 217.902C667.714 217.026 667.294 215.964 667.294 214.716C667.294 213.468 667.714 212.406 668.554 211.53C669.406 210.642 670.504 210.198 671.848 210.198C673.18 210.198 674.272 210.642 675.124 211.53C675.976 212.418 676.402 213.48 676.402 214.716C676.402 215.952 675.976 217.014 675.124 217.902Z" fill="black"/>
<path d="M679.826 219H679.016V210.414H685.298V211.152H679.826V219Z" fill="black"/>
<path d="M688.438 219H687.682V210.414H688.492V217.776L694.648 210.414H695.386V219H694.576V211.656L688.438 219Z" fill="black"/>
<path d="M699.407 219H698.651V210.414H699.461V217.776L705.617 210.414H706.355V219H705.545V211.656L699.407 219ZM702.485 208.956C701.645 208.956 700.967 208.722 700.451 208.254C699.947 207.774 699.695 207.156 699.695 206.4H700.433C700.433 206.952 700.619 207.402 700.991 207.75C701.375 208.098 701.873 208.272 702.485 208.272C703.085 208.272 703.571 208.098 703.943 207.75C704.315 207.39 704.501 206.94 704.501 206.4H705.239C705.239 207.132 704.975 207.744 704.447 208.236C703.931 208.716 703.277 208.956 702.485 208.956Z" fill="black"/>
</svg>
