<svg width="80" height="80" viewBox="0 0 80 80" fill="none" xmlns="http://www.w3.org/2000/svg">
<g clip-path="url(#clip0_80_2144)">
<path d="M2.34375 74.2851H27.2128C28.2194 77.589 31.2947 80.0001 34.9234 80.0001H45.0766C48.7053 80.0001 51.7806 77.589 52.7872 74.2851H77.6562C78.9506 74.2851 80 73.2358 80 71.9414C80 70.647 78.9506 69.5976 77.6562 69.5976H76.2388V61.4236C76.2388 59.9106 74.8244 58.7943 73.3534 59.1433C69.6053 60.0334 67.1177 60.4765 63.9212 60.4348C58.4564 60.3628 56.1206 59.2706 49.6236 58.7697C45.4495 58.4481 42.0641 60.3765 39.9072 63.1164C37.7497 60.3764 34.3638 58.4479 30.1912 58.7697C23.7094 59.2695 21.3491 60.3629 15.8933 60.4348C12.697 60.4761 10.2098 60.0334 6.46141 59.1433C4.99 58.7939 3.57609 59.9115 3.57609 61.4236V69.5976H2.34375C1.04937 69.5976 0 70.647 0 71.9414C0 73.2358 1.04937 74.2851 2.34375 74.2851ZM8.26375 64.3489C10.6527 64.8331 13.0797 65.1603 15.9556 65.1217C21.8713 65.0439 24.3302 63.9229 30.5517 63.4431C32.81 63.2694 36.5631 64.5651 37.6338 68.8495C37.6341 68.8508 37.6345 68.8518 37.6348 68.8531C38.2173 71.1614 41.575 71.2547 42.1806 68.8522C42.1809 68.8512 42.1813 68.8503 42.1814 68.8494C43.252 64.565 47.0036 63.2694 49.2633 63.4431C55.4861 63.9229 57.9428 65.0437 63.8591 65.1217C66.735 65.1604 69.162 64.8329 71.5511 64.3489V69.5976H50.8042C50.8002 69.5976 50.7962 69.597 50.7922 69.597C49.4978 69.597 48.4484 70.6464 48.4484 71.9408C48.4484 73.8 46.9358 75.3126 45.0766 75.3126H34.9234C33.0642 75.3126 31.5516 73.8 31.5516 71.9408C31.5516 70.6464 30.5022 69.597 29.2078 69.597C29.2037 69.597 29.1998 69.5976 29.1958 69.5976H8.26375V64.3489Z" fill="#F32735"/>
<path d="M37.5675 54.1658H42.3942C46.1214 54.1658 49.1744 51.2343 49.1999 47.6319L49.2369 42.7152C49.91 38.4974 51.5936 34.5749 54.2439 31.0565C56.5858 27.9494 57.8238 24.2441 57.8238 20.341C57.8238 10.3101 49.6142 2.37803 39.7475 2.51944C30.1419 2.65272 22.3192 10.4646 22.1788 20.0737C22.1194 24.0965 23.3696 27.9119 25.7942 31.1077C28.4202 34.5682 30.0903 38.4632 30.7622 42.6855V47.5846C30.7621 51.2135 33.8149 54.1658 37.5675 54.1658ZM44.5122 47.5977C44.5049 48.6347 43.5547 49.4783 42.3941 49.4783H37.5674C36.3996 49.4783 35.4494 48.6288 35.4494 47.5846V44.7908H44.5333L44.5122 47.5977ZM26.8655 20.1424C26.9685 13.1071 32.7764 7.30413 39.8125 7.20647C47.1283 7.09819 53.1361 12.9941 53.1361 20.341C53.1361 23.2179 52.2247 25.9474 50.5 28.2355C47.778 31.8493 45.921 35.8333 44.965 40.1035H42.3441V26.5144C42.3441 25.2201 41.2947 24.1707 40.0003 24.1707C38.706 24.1707 37.6566 25.2201 37.6566 26.5144V40.1035H35.0417C34.0903 35.8194 32.2405 31.8485 29.5285 28.2744C27.7427 25.9207 26.8219 23.1088 26.8655 20.1424Z" fill="#F32735"/>
<path d="M17.6402 18.0269C17.6402 16.7325 16.5909 15.6831 15.2965 15.6831H7.48242C6.18805 15.6831 5.13867 16.7325 5.13867 18.0269C5.13867 19.3212 6.18805 20.3706 7.48242 20.3706H15.2965C16.591 20.3706 17.6402 19.3212 17.6402 18.0269Z" fill="#F32735"/>
<path d="M62.4922 31.7626L69.2249 35.7291C70.341 36.3866 71.7776 36.0139 72.434 34.8994C73.091 33.7841 72.7196 32.3475 71.6043 31.6903L64.8716 27.7239C63.7563 27.067 62.3196 27.4381 61.6626 28.5536C61.0057 29.6689 61.3771 31.1056 62.4922 31.7626Z" fill="#F32735"/>
<path d="M10.7755 35.729L17.5082 31.7626C18.6235 31.1056 18.9949 29.6689 18.3379 28.5536C17.6807 27.4381 16.244 27.067 15.1288 27.7239L8.39615 31.6903C7.28084 32.3473 6.90943 33.784 7.56646 34.8994C8.22365 36.0148 9.66021 36.3859 10.7755 35.729Z" fill="#F32735"/>
<path d="M64.8717 8.32989L71.6044 4.36348C72.7197 3.70645 73.0911 2.26973 72.4341 1.15442C71.777 0.0389486 70.34 -0.332145 69.225 0.32473L62.4923 4.29114C61.377 4.94817 61.0056 6.38489 61.6627 7.5002C62.3198 8.61582 63.7564 8.98676 64.8717 8.32989Z" fill="#F32735"/>
<path d="M17.5082 4.29114L10.7755 0.32473C9.66021 -0.332145 8.22381 0.0389486 7.56646 1.15442C6.90943 2.26973 7.28084 3.70629 8.39615 4.36348L15.1288 8.32989C16.2447 8.98723 17.681 8.61504 18.3379 7.5002C18.9947 6.38489 18.6233 4.94817 17.5082 4.29114Z" fill="#F32735"/>
<path d="M74.8614 18.0269C74.8614 16.7325 73.8121 15.6831 72.5177 15.6831H64.7036C63.4092 15.6831 62.3599 16.7325 62.3599 18.0269C62.3599 19.3212 63.4092 20.3706 64.7036 20.3706H72.5177C73.8121 20.3706 74.8614 19.3212 74.8614 18.0269Z" fill="#F32735"/>
</g>
<defs>
<clipPath id="clip0_80_2144">
<rect width="80" height="80" fill="white"/>
</clipPath>
</defs>
</svg>
